%TF.GenerationSoftware,KiCad,Pcbnew,7.0.10*%
%TF.CreationDate,2024-04-12T13:43:35-04:00*%
%TF.ProjectId,cbm2romcart,63626d32-726f-46d6-9361-72742e6b6963,rev?*%
%TF.SameCoordinates,Original*%
%TF.FileFunction,Copper,L1,Top*%
%TF.FilePolarity,Positive*%
%FSLAX46Y46*%
G04 Gerber Fmt 4.6, Leading zero omitted, Abs format (unit mm)*
G04 Created by KiCad (PCBNEW 7.0.10) date 2024-04-12 13:43:35*
%MOMM*%
%LPD*%
G01*
G04 APERTURE LIST*
%TA.AperFunction,ComponentPad*%
%ADD10R,1.600000X1.600000*%
%TD*%
%TA.AperFunction,ComponentPad*%
%ADD11O,1.600000X1.600000*%
%TD*%
%TA.AperFunction,SMDPad,CuDef*%
%ADD12R,1.524000X8.000000*%
%TD*%
%TA.AperFunction,ComponentPad*%
%ADD13C,1.600000*%
%TD*%
%TA.AperFunction,ComponentPad*%
%ADD14R,1.600000X2.400000*%
%TD*%
%TA.AperFunction,ComponentPad*%
%ADD15O,1.600000X2.400000*%
%TD*%
%TA.AperFunction,ComponentPad*%
%ADD16R,1.422400X1.422400*%
%TD*%
%TA.AperFunction,ComponentPad*%
%ADD17C,1.422400*%
%TD*%
%TA.AperFunction,ComponentPad*%
%ADD18R,1.700000X1.700000*%
%TD*%
%TA.AperFunction,ViaPad*%
%ADD19C,0.600000*%
%TD*%
%TA.AperFunction,Conductor*%
%ADD20C,0.250000*%
%TD*%
%TA.AperFunction,Conductor*%
%ADD21C,0.750000*%
%TD*%
G04 APERTURE END LIST*
D10*
%TO.P,SW1,1*%
%TO.N,GND*%
X179832000Y-87579200D03*
D11*
%TO.P,SW1,2*%
X177292000Y-87579200D03*
%TO.P,SW1,3*%
X174752000Y-87579200D03*
%TO.P,SW1,4*%
X172212000Y-87579200D03*
%TO.P,SW1,5*%
%TO.N,Net-(RN1-R5)*%
X172212000Y-95199200D03*
%TO.P,SW1,6*%
%TO.N,ROMSET2*%
X174752000Y-95199200D03*
%TO.P,SW1,7*%
%TO.N,ROMSET1*%
X177292000Y-95199200D03*
%TO.P,SW1,8*%
%TO.N,ROMSET0*%
X179832000Y-95199200D03*
%TD*%
D12*
%TO.P,P1,15,+5V*%
%TO.N,5V*%
X171450000Y-117348000D03*
%TO.P,P1,14,+5V*%
X168910000Y-117348000D03*
%TO.P,P1,13,A12*%
%TO.N,A12*%
X166370000Y-117348000D03*
%TO.P,P1,12,A11*%
%TO.N,A11*%
X163830000Y-117348000D03*
%TO.P,P1,11,A10*%
%TO.N,A10*%
X161290000Y-117348000D03*
%TO.P,P1,10,A9*%
%TO.N,A9*%
X158750000Y-117348000D03*
%TO.P,P1,9,A8*%
%TO.N,A8*%
X156210000Y-117348000D03*
%TO.P,P1,8,A7*%
%TO.N,A7*%
X153670000Y-117348000D03*
%TO.P,P1,7,A6*%
%TO.N,A6*%
X151130000Y-117348000D03*
%TO.P,P1,6,A5*%
%TO.N,A5*%
X148590000Y-117348000D03*
%TO.P,P1,5,A4*%
%TO.N,A4*%
X146050000Y-117348000D03*
%TO.P,P1,4,A3*%
%TO.N,A3*%
X143510000Y-117348000D03*
%TO.P,P1,3,A2*%
%TO.N,A2*%
X140970000Y-117348000D03*
%TO.P,P1,2,A1*%
%TO.N,A1*%
X138430000Y-117348000D03*
%TO.P,P1,1,A0*%
%TO.N,A0*%
X135890000Y-117348000D03*
%TD*%
D13*
%TO.P,C2,1*%
%TO.N,5V*%
X147878800Y-98795200D03*
%TO.P,C2,2*%
%TO.N,GND*%
X147878800Y-101295200D03*
%TD*%
%TO.P,C1,1*%
%TO.N,5V*%
X171907200Y-109434000D03*
%TO.P,C1,2*%
%TO.N,GND*%
X171907200Y-106934000D03*
%TD*%
D14*
%TO.P,U1,1,I4*%
%TO.N,Net-(J1-Pin_1)*%
X168757600Y-99161600D03*
D15*
%TO.P,U1,2,I5*%
%TO.N,~{CSBANK3}*%
X166217600Y-99161600D03*
%TO.P,U1,3,I6*%
%TO.N,~{CSBANK2}*%
X163677600Y-99161600D03*
%TO.P,U1,4,I7*%
%TO.N,~{CSBANK1}*%
X161137600Y-99161600D03*
%TO.P,U1,5,EI*%
%TO.N,Net-(RN1-R5)*%
X158597600Y-99161600D03*
%TO.P,U1,6,S2*%
%TO.N,unconnected-(U1-S2-Pad6)*%
X156057600Y-99161600D03*
%TO.P,U1,7,S1*%
%TO.N,E14*%
X153517600Y-99161600D03*
%TO.P,U1,8,GND*%
%TO.N,GND*%
X150977600Y-99161600D03*
%TO.P,U1,9,S0*%
%TO.N,E13*%
X150977600Y-106781600D03*
%TO.P,U1,10,IO*%
%TO.N,5V*%
X153517600Y-106781600D03*
%TO.P,U1,11,I1*%
X156057600Y-106781600D03*
%TO.P,U1,12,I2*%
X158597600Y-106781600D03*
%TO.P,U1,13,I3*%
X161137600Y-106781600D03*
%TO.P,U1,14,GS*%
%TO.N,~{CS_ROM}*%
X163677600Y-106781600D03*
%TO.P,U1,15,EO*%
%TO.N,unconnected-(U1-EO-Pad15)*%
X166217600Y-106781600D03*
%TO.P,U1,16,VCC*%
%TO.N,5V*%
X168757600Y-106781600D03*
%TD*%
D16*
%TO.P,U2,1,VPP*%
%TO.N,unconnected-(U2-VPP-Pad1)*%
X136398000Y-92303600D03*
D17*
%TO.P,U2,2,A16*%
%TO.N,ROMSET1*%
X133858000Y-89763600D03*
%TO.P,U2,3,A15*%
%TO.N,ROMSET0*%
X133858000Y-92303600D03*
%TO.P,U2,4,A12*%
%TO.N,A12*%
X131318000Y-89763600D03*
%TO.P,U2,5,A7*%
%TO.N,A7*%
X128778000Y-92303600D03*
%TO.P,U2,6,A6*%
%TO.N,A6*%
X131318000Y-92303600D03*
%TO.P,U2,7,A5*%
%TO.N,A5*%
X128778000Y-94843600D03*
%TO.P,U2,8,A4*%
%TO.N,A4*%
X131318000Y-94843600D03*
%TO.P,U2,9,A3*%
%TO.N,A3*%
X128778000Y-97383600D03*
%TO.P,U2,10,A2*%
%TO.N,A2*%
X131318000Y-97383600D03*
%TO.P,U2,11,A1*%
%TO.N,A1*%
X128778000Y-99923600D03*
%TO.P,U2,12,A0*%
%TO.N,A0*%
X131318000Y-99923600D03*
%TO.P,U2,13,D0*%
%TO.N,D0*%
X128778000Y-102463600D03*
%TO.P,U2,14,D1*%
%TO.N,D1*%
X131318000Y-105003600D03*
%TO.P,U2,15,D2*%
%TO.N,D2*%
X131318000Y-102463600D03*
%TO.P,U2,16,GND*%
%TO.N,GND*%
X133858000Y-105003600D03*
%TO.P,U2,17,D3*%
%TO.N,D3*%
X133858000Y-102463600D03*
%TO.P,U2,18,D4*%
%TO.N,D4*%
X136398000Y-105003600D03*
%TO.P,U2,19,D5*%
%TO.N,D5*%
X136398000Y-102463600D03*
%TO.P,U2,20,D6*%
%TO.N,D6*%
X138938000Y-105003600D03*
%TO.P,U2,21,D7*%
%TO.N,D7*%
X141478000Y-102463600D03*
%TO.P,U2,22,~{CE}*%
%TO.N,GND*%
X138938000Y-102463600D03*
%TO.P,U2,23,A10*%
%TO.N,A10*%
X141478000Y-99923600D03*
%TO.P,U2,24,~{OE}*%
%TO.N,~{CS_ROM}*%
X138938000Y-99923600D03*
%TO.P,U2,25,A11*%
%TO.N,A11*%
X141478000Y-97383600D03*
%TO.P,U2,26,A9*%
%TO.N,A9*%
X138938000Y-97383600D03*
%TO.P,U2,27,A8*%
%TO.N,A8*%
X141478000Y-94843600D03*
%TO.P,U2,28,A13*%
%TO.N,E13*%
X138938000Y-94843600D03*
%TO.P,U2,29,A14*%
%TO.N,E14*%
X141478000Y-92303600D03*
%TO.P,U2,30,A17*%
%TO.N,ROMSET2*%
X138938000Y-89763600D03*
%TO.P,U2,31,~{PGM}*%
%TO.N,5V*%
X138938000Y-92303600D03*
%TO.P,U2,32,VCC*%
X136398000Y-89763600D03*
%TD*%
D11*
%TO.P,RN1,9,R8*%
%TO.N,ROMSET0*%
X167081200Y-88696800D03*
%TO.P,RN1,8,R7*%
%TO.N,ROMSET1*%
X164541200Y-88696800D03*
%TO.P,RN1,7,R6*%
%TO.N,ROMSET2*%
X162001200Y-88696800D03*
%TO.P,RN1,6,R5*%
%TO.N,Net-(RN1-R5)*%
X159461200Y-88696800D03*
%TO.P,RN1,5,R4*%
%TO.N,~{CSBANK3}*%
X156921200Y-88696800D03*
%TO.P,RN1,4,R3*%
%TO.N,~{CSBANK2}*%
X154381200Y-88696800D03*
%TO.P,RN1,3,R2*%
%TO.N,~{CSBANK1}*%
X151841200Y-88696800D03*
%TO.P,RN1,2,R1*%
%TO.N,Net-(J1-Pin_1)*%
X149301200Y-88696800D03*
D10*
%TO.P,RN1,1,common*%
%TO.N,5V*%
X146761200Y-88696800D03*
%TD*%
D18*
%TO.P,J1,1,Pin_1*%
%TO.N,Net-(J1-Pin_1)*%
X180594000Y-106781600D03*
%TD*%
D19*
%TO.N,ROMSET2*%
X162915600Y-90881200D03*
%TO.N,A0*%
X135890000Y-111252000D03*
%TO.N,Net-(RN1-R5)*%
X159461200Y-96504600D03*
%TO.N,GND*%
X169570400Y-101650800D03*
%TO.N,Net-(J1-Pin_1)*%
X157226000Y-97129600D03*
%TO.N,~{CS_ROM}*%
X146073000Y-102768400D03*
%TO.N,A10*%
X146034742Y-108270058D03*
%TO.N,D4*%
X138633200Y-107238800D03*
%TO.N,D3*%
X136245600Y-106832400D03*
%TO.N,D5*%
X140258800Y-106324400D03*
%TO.N,A2*%
X127457200Y-99110800D03*
%TO.N,A1*%
X126781400Y-101447600D03*
%TO.N,A8*%
X143271400Y-95385925D03*
%TO.N,A9*%
X144131138Y-96051262D03*
%TO.N,A12*%
X139141200Y-87782400D03*
%TO.N,GND*%
X128371600Y-106781600D03*
%TO.N,A6*%
X133451600Y-94335600D03*
%TO.N,A11*%
X145173000Y-98044000D03*
%TO.N,A5*%
X134264400Y-96113600D03*
%TD*%
D20*
%TO.N,A12*%
X166378200Y-112835000D02*
X166378200Y-117504400D01*
X162864400Y-109321200D02*
X166378200Y-112835000D01*
X148691200Y-109321200D02*
X162864400Y-109321200D01*
X145448000Y-106078000D02*
X148691200Y-109321200D01*
X145798000Y-98514750D02*
X145448000Y-98864750D01*
X145798000Y-96834240D02*
X145798000Y-98514750D01*
X145448000Y-98864750D02*
X145448000Y-106078000D01*
X144390022Y-95426262D02*
X145798000Y-96834240D01*
X143052800Y-91694000D02*
X143052800Y-94132400D01*
X143052800Y-94132400D02*
X144346662Y-95426262D01*
X144346662Y-95426262D02*
X144390022Y-95426262D01*
X139141200Y-87782400D02*
X143052800Y-91694000D01*
%TO.N,A11*%
X163838200Y-112885800D02*
X163838200Y-117504400D01*
X160723600Y-109771200D02*
X163838200Y-112885800D01*
X148419768Y-109771200D02*
X160723600Y-109771200D01*
X145173000Y-98044000D02*
X144998000Y-98219000D01*
X144998000Y-98219000D02*
X144998000Y-106349432D01*
X144998000Y-106349432D02*
X148419768Y-109771200D01*
D21*
%TO.N,5V*%
X146304000Y-95961200D02*
X146304000Y-91998800D01*
X146304000Y-91998800D02*
X146761200Y-91541600D01*
X147878800Y-97536000D02*
X146304000Y-95961200D01*
X147878800Y-98795200D02*
X147878800Y-97536000D01*
X146761200Y-91541600D02*
X146761200Y-88696800D01*
D20*
%TO.N,A6*%
X134162800Y-95046800D02*
X133451600Y-94335600D01*
X136753600Y-95046800D02*
X134162800Y-95046800D01*
X143198000Y-97274800D02*
X142036800Y-96113600D01*
X146819200Y-112021200D02*
X143198000Y-108400000D01*
X143198000Y-108400000D02*
X143198000Y-97274800D01*
X150375200Y-112021200D02*
X146819200Y-112021200D01*
X151138200Y-112784200D02*
X150375200Y-112021200D01*
X137820400Y-96113600D02*
X136753600Y-95046800D01*
X151138200Y-117504400D02*
X151138200Y-112784200D01*
X142036800Y-96113600D02*
X137820400Y-96113600D01*
%TO.N,A7*%
X129997200Y-93522800D02*
X128778000Y-92303600D01*
X141782800Y-93522800D02*
X129997200Y-93522800D01*
X142646400Y-94386400D02*
X141782800Y-93522800D01*
X142646400Y-96086804D02*
X142646400Y-94386400D01*
X143648000Y-97088404D02*
X142646400Y-96086804D01*
X147080400Y-111571200D02*
X143648000Y-108138800D01*
X143648000Y-108138800D02*
X143648000Y-97088404D01*
X153678200Y-113519404D02*
X151729996Y-111571200D01*
X151729996Y-111571200D02*
X147080400Y-111571200D01*
X153678200Y-117504400D02*
X153678200Y-113519404D01*
%TO.N,A8*%
X144098000Y-107952404D02*
X147266796Y-111121200D01*
X144098000Y-96902008D02*
X144098000Y-107952404D01*
X156218200Y-112987400D02*
X156218200Y-117504400D01*
X143271400Y-96075408D02*
X144098000Y-96902008D01*
X147266796Y-111121200D02*
X154352000Y-111121200D01*
X143271400Y-95385925D02*
X143271400Y-96075408D01*
X154352000Y-111121200D02*
X156218200Y-112987400D01*
%TO.N,A9*%
X158758200Y-113038200D02*
X158758200Y-117504400D01*
X156391200Y-110671200D02*
X158758200Y-113038200D01*
X144548000Y-107766008D02*
X147453192Y-110671200D01*
X144209662Y-96051262D02*
X144548000Y-96389600D01*
X144548000Y-96389600D02*
X144548000Y-107766008D01*
X147453192Y-110671200D02*
X156391200Y-110671200D01*
X144131138Y-96051262D02*
X144209662Y-96051262D01*
%TO.N,~{CS_ROM}*%
X163677600Y-108254800D02*
X163677600Y-106781600D01*
X148877596Y-108871200D02*
X163061200Y-108871200D01*
X146073000Y-106066604D02*
X148877596Y-108871200D01*
X163061200Y-108871200D02*
X163677600Y-108254800D01*
X146073000Y-102768400D02*
X146073000Y-106066604D01*
%TO.N,A5*%
X142748000Y-99466400D02*
X141935200Y-98653600D01*
X141935200Y-98653600D02*
X136804400Y-98653600D01*
X146456400Y-112471200D02*
X142748000Y-108762800D01*
X148132800Y-112471200D02*
X146456400Y-112471200D01*
X142748000Y-108762800D02*
X142748000Y-99466400D01*
X136804400Y-98653600D02*
X134264400Y-96113600D01*
X148598200Y-112936600D02*
X148132800Y-112471200D01*
X148598200Y-117504400D02*
X148598200Y-112936600D01*
%TO.N,A4*%
X146058200Y-112987400D02*
X146058200Y-117504400D01*
X141681200Y-105281604D02*
X141681200Y-108610400D01*
X140208000Y-102006400D02*
X140208000Y-103808404D01*
X131978400Y-94843600D02*
X138277600Y-101142800D01*
X139344400Y-101142800D02*
X140208000Y-102006400D01*
X141681200Y-108610400D02*
X146058200Y-112987400D01*
X131318000Y-94843600D02*
X131978400Y-94843600D01*
X138277600Y-101142800D02*
X139344400Y-101142800D01*
X140208000Y-103808404D02*
X141681200Y-105281604D01*
%TO.N,~{CSBANK3}*%
X156921200Y-88696800D02*
X156921200Y-90017600D01*
X156921200Y-90017600D02*
X160375600Y-93472000D01*
X160375600Y-93472000D02*
X162255200Y-93472000D01*
X162255200Y-93472000D02*
X166217600Y-97434400D01*
X166217600Y-97434400D02*
X166217600Y-99161600D01*
%TO.N,~{CSBANK1}*%
X161137600Y-97180400D02*
X161137600Y-99161600D01*
X158953200Y-94996000D02*
X161137600Y-97180400D01*
X151841200Y-88696800D02*
X151841200Y-89966800D01*
X151841200Y-89966800D02*
X156870400Y-94996000D01*
X156870400Y-94996000D02*
X158953200Y-94996000D01*
%TO.N,~{CSBANK2}*%
X158597600Y-94234000D02*
X160426400Y-94234000D01*
X160426400Y-94234000D02*
X163677600Y-97485200D01*
X163677600Y-97485200D02*
X163677600Y-99161600D01*
X154381200Y-90017600D02*
X158597600Y-94234000D01*
X154381200Y-88696800D02*
X154381200Y-90017600D01*
%TO.N,Net-(RN1-R5)*%
X163169600Y-92405200D02*
X169418000Y-92405200D01*
X169418000Y-92405200D02*
X172212000Y-95199200D01*
X159461200Y-88696800D02*
X163169600Y-92405200D01*
%TO.N,ROMSET2*%
X162001200Y-89966800D02*
X162915600Y-90881200D01*
X162001200Y-88696800D02*
X162001200Y-89966800D01*
%TO.N,Net-(RN1-R5)*%
X158597600Y-97368200D02*
X158597600Y-99161600D01*
X159461200Y-96504600D02*
X158597600Y-97368200D01*
%TO.N,ROMSET2*%
X171297600Y-91744800D02*
X174752000Y-95199200D01*
X165049200Y-91744800D02*
X171297600Y-91744800D01*
X162001200Y-88696800D02*
X165049200Y-91744800D01*
%TO.N,ROMSET1*%
X173228000Y-91135200D02*
X177292000Y-95199200D01*
X166979600Y-91135200D02*
X173228000Y-91135200D01*
X164541200Y-88696800D02*
X166979600Y-91135200D01*
%TO.N,ROMSET0*%
X170078400Y-90525600D02*
X175158400Y-90525600D01*
X168249600Y-88696800D02*
X170078400Y-90525600D01*
X167081200Y-88696800D02*
X168249600Y-88696800D01*
X175158400Y-90525600D02*
X179832000Y-95199200D01*
D21*
%TO.N,5V*%
X178206400Y-89509600D02*
X181406800Y-92710000D01*
X171602400Y-89509600D02*
X178206400Y-89509600D01*
X181406800Y-96316800D02*
X173329600Y-104394000D01*
X168656000Y-86563200D02*
X171602400Y-89509600D01*
X181406800Y-92710000D02*
X181406800Y-96316800D01*
X173329600Y-104394000D02*
X168706800Y-104394000D01*
X146710400Y-86563200D02*
X168656000Y-86563200D01*
D20*
%TO.N,A1*%
X127762000Y-108102400D02*
X134366000Y-108102400D01*
X126796800Y-101463000D02*
X126796800Y-107137200D01*
X126796800Y-107137200D02*
X127762000Y-108102400D01*
X134366000Y-108102400D02*
X138438200Y-112174600D01*
X138438200Y-112174600D02*
X138438200Y-117504400D01*
X126781400Y-101447600D02*
X126796800Y-101463000D01*
%TO.N,A2*%
X140978200Y-112522000D02*
X140978200Y-117504400D01*
X136050600Y-107594400D02*
X140978200Y-112522000D01*
X127406400Y-107086400D02*
X127914400Y-107594400D01*
X127914400Y-107594400D02*
X136050600Y-107594400D01*
X127457200Y-99110800D02*
X127406400Y-99161600D01*
X127406400Y-99161600D02*
X127406400Y-107086400D01*
%TO.N,A0*%
X135890000Y-112217200D02*
X135898200Y-112225400D01*
X135890000Y-111252000D02*
X135890000Y-112217200D01*
X135898200Y-112225400D02*
X135898200Y-117504400D01*
D21*
%TO.N,5V*%
X138379200Y-86563200D02*
X146710400Y-86563200D01*
X136398000Y-89763600D02*
X136398000Y-88544400D01*
X136398000Y-88544400D02*
X138379200Y-86563200D01*
X146761200Y-86614000D02*
X146710400Y-86563200D01*
X146761200Y-88696800D02*
X146761200Y-86614000D01*
X168757600Y-104444800D02*
X168706800Y-104394000D01*
X168757600Y-106781600D02*
X168757600Y-104444800D01*
X168706800Y-104394000D02*
X168148000Y-104394000D01*
%TO.N,GND*%
X150977600Y-101600000D02*
X150977600Y-99161600D01*
X150926800Y-101650800D02*
X150977600Y-101600000D01*
X150926800Y-101650800D02*
X148234400Y-101650800D01*
X152044400Y-101650800D02*
X150926800Y-101650800D01*
%TO.N,5V*%
X168757600Y-111709200D02*
X169062400Y-112014000D01*
X168757600Y-106781600D02*
X168757600Y-111709200D01*
X171458200Y-112005800D02*
X171907200Y-111556800D01*
X171907200Y-111556800D02*
X171907200Y-109434000D01*
%TO.N,GND*%
X169570400Y-101650800D02*
X158699200Y-101650800D01*
X158699200Y-101650800D02*
X152044400Y-101650800D01*
D20*
%TO.N,Net-(J1-Pin_1)*%
X149301200Y-90119200D02*
X149301200Y-88696800D01*
X157226000Y-97129600D02*
X156311600Y-97129600D01*
X156311600Y-97129600D02*
X149301200Y-90119200D01*
D21*
%TO.N,GND*%
X148234400Y-101650800D02*
X147878800Y-101295200D01*
%TO.N,5V*%
X171458200Y-112005800D02*
X171458200Y-112928400D01*
D20*
%TO.N,A3*%
X143518200Y-112471200D02*
X143518200Y-117504400D01*
X141173200Y-110126200D02*
X143518200Y-112471200D01*
X141173200Y-105410000D02*
X141173200Y-110126200D01*
X138531600Y-103733600D02*
X139496800Y-103733600D01*
X137668000Y-101600000D02*
X137668000Y-102870000D01*
X132181600Y-96113600D02*
X137668000Y-101600000D01*
X139496800Y-103733600D02*
X141173200Y-105410000D01*
X130048000Y-96113600D02*
X132181600Y-96113600D01*
X137668000Y-102870000D02*
X138531600Y-103733600D01*
X128778000Y-97383600D02*
X130048000Y-96113600D01*
%TO.N,A10*%
X158481200Y-110221200D02*
X161298200Y-113038200D01*
X161298200Y-113038200D02*
X161298200Y-117504400D01*
X147914800Y-110221200D02*
X158481200Y-110221200D01*
X145999200Y-108305600D02*
X147914800Y-110221200D01*
D21*
%TO.N,5V*%
X171458200Y-112928400D02*
X171458200Y-112377800D01*
X171458200Y-117504400D02*
X171458200Y-112928400D01*
D20*
%TO.N,D5*%
X137617200Y-103682800D02*
X136398000Y-102463600D01*
X138633200Y-106324400D02*
X137617200Y-105308400D01*
X137617200Y-105308400D02*
X137617200Y-103682800D01*
X140258800Y-106324400D02*
X138633200Y-106324400D01*
%TO.N,D4*%
X138633200Y-107238800D02*
X136398000Y-105003600D01*
%TO.N,Net-(J1-Pin_1)*%
X168757600Y-97739200D02*
X168757600Y-99161600D01*
D21*
%TO.N,5V*%
X161137600Y-104902000D02*
X161645600Y-104394000D01*
X161645600Y-104394000D02*
X168148000Y-104394000D01*
X161137600Y-106781600D02*
X161137600Y-104902000D01*
X158597600Y-106781600D02*
X161137600Y-106781600D01*
X156057600Y-106781600D02*
X158597600Y-106781600D01*
X153517600Y-106781600D02*
X156057600Y-106781600D01*
D20*
%TO.N,D3*%
X136245600Y-106832400D02*
X135077200Y-105664000D01*
X135077200Y-105664000D02*
X135077200Y-103682800D01*
X135077200Y-103682800D02*
X133858000Y-102463600D01*
D21*
%TO.N,5V*%
X171094400Y-112014000D02*
X169062400Y-112014000D01*
X169062400Y-112014000D02*
X168960800Y-112115600D01*
X168960800Y-112115600D02*
X168960800Y-117461800D01*
X171458200Y-112377800D02*
X171094400Y-112014000D01*
%TO.N,GND*%
X132080000Y-106781600D02*
X133858000Y-105003600D01*
X128371600Y-106781600D02*
X132080000Y-106781600D01*
%TO.N,5V*%
X136398000Y-89763600D02*
X138938000Y-92303600D01*
X168960800Y-117461800D02*
X168918200Y-117504400D01*
D20*
X168918200Y-112818600D02*
X168960800Y-112776000D01*
X168918200Y-117504400D02*
X168918200Y-112818600D01*
%TD*%
M02*
