%TF.GenerationSoftware,KiCad,Pcbnew,7.0.10*%
%TF.CreationDate,2024-04-12T13:43:35-04:00*%
%TF.ProjectId,cbm2romcart,63626d32-726f-46d6-9361-72742e6b6963,rev?*%
%TF.SameCoordinates,Original*%
%TF.FileFunction,Soldermask,Top*%
%TF.FilePolarity,Negative*%
%FSLAX46Y46*%
G04 Gerber Fmt 4.6, Leading zero omitted, Abs format (unit mm)*
G04 Created by KiCad (PCBNEW 7.0.10) date 2024-04-12 13:43:35*
%MOMM*%
%LPD*%
G01*
G04 APERTURE LIST*
%ADD10R,1.600000X1.600000*%
%ADD11O,1.600000X1.600000*%
%ADD12R,1.524000X8.000000*%
%ADD13R,39.674800X8.315600*%
%ADD14C,1.600000*%
%ADD15R,1.600000X2.400000*%
%ADD16O,1.600000X2.400000*%
%ADD17R,1.422400X1.422400*%
%ADD18C,1.422400*%
%ADD19R,1.700000X1.700000*%
G04 APERTURE END LIST*
D10*
%TO.C,SW1*%
X179832000Y-87579200D03*
D11*
X177292000Y-87579200D03*
X174752000Y-87579200D03*
X172212000Y-87579200D03*
X172212000Y-95199200D03*
X174752000Y-95199200D03*
X177292000Y-95199200D03*
X179832000Y-95199200D03*
%TD*%
D12*
%TO.C,P1*%
X171450000Y-117348000D03*
X168910000Y-117348000D03*
X166370000Y-117348000D03*
X163830000Y-117348000D03*
X161290000Y-117348000D03*
X158750000Y-117348000D03*
X156210000Y-117348000D03*
X153670000Y-117348000D03*
X151130000Y-117348000D03*
X148590000Y-117348000D03*
X146050000Y-117348000D03*
X143510000Y-117348000D03*
X140970000Y-117348000D03*
X138430000Y-117348000D03*
X135890000Y-117348000D03*
D13*
X153695400Y-117340200D03*
%TD*%
D14*
%TO.C,C2*%
X147878800Y-98795200D03*
X147878800Y-101295200D03*
%TD*%
%TO.C,C1*%
X171907200Y-109434000D03*
X171907200Y-106934000D03*
%TD*%
D15*
%TO.C,U1*%
X168757600Y-99161600D03*
D16*
X166217600Y-99161600D03*
X163677600Y-99161600D03*
X161137600Y-99161600D03*
X158597600Y-99161600D03*
X156057600Y-99161600D03*
X153517600Y-99161600D03*
X150977600Y-99161600D03*
X150977600Y-106781600D03*
X153517600Y-106781600D03*
X156057600Y-106781600D03*
X158597600Y-106781600D03*
X161137600Y-106781600D03*
X163677600Y-106781600D03*
X166217600Y-106781600D03*
X168757600Y-106781600D03*
%TD*%
D17*
%TO.C,U2*%
X136398000Y-92303600D03*
D18*
X133858000Y-89763600D03*
X133858000Y-92303600D03*
X131318000Y-89763600D03*
X128778000Y-92303600D03*
X131318000Y-92303600D03*
X128778000Y-94843600D03*
X131318000Y-94843600D03*
X128778000Y-97383600D03*
X131318000Y-97383600D03*
X128778000Y-99923600D03*
X131318000Y-99923600D03*
X128778000Y-102463600D03*
X131318000Y-105003600D03*
X131318000Y-102463600D03*
X133858000Y-105003600D03*
X133858000Y-102463600D03*
X136398000Y-105003600D03*
X136398000Y-102463600D03*
X138938000Y-105003600D03*
X141478000Y-102463600D03*
X138938000Y-102463600D03*
X141478000Y-99923600D03*
X138938000Y-99923600D03*
X141478000Y-97383600D03*
X138938000Y-97383600D03*
X141478000Y-94843600D03*
X138938000Y-94843600D03*
X141478000Y-92303600D03*
X138938000Y-89763600D03*
X138938000Y-92303600D03*
X136398000Y-89763600D03*
%TD*%
D11*
%TO.C,RN1*%
X167081200Y-88696800D03*
X164541200Y-88696800D03*
X162001200Y-88696800D03*
X159461200Y-88696800D03*
X156921200Y-88696800D03*
X154381200Y-88696800D03*
X151841200Y-88696800D03*
X149301200Y-88696800D03*
D10*
X146761200Y-88696800D03*
%TD*%
D19*
%TO.C,J1*%
X180594000Y-106781600D03*
%TD*%
M02*
