M48
; DRILL file {KiCad 7.0.10} date Fri Apr 12 13:43:41 2024
; FORMAT={-:-/ absolute / inch / decimal}
; #@! TF.CreationDate,2024-04-12T13:43:41-04:00
; #@! TF.GenerationSoftware,Kicad,Pcbnew,7.0.10
; #@! TF.FileFunction,Plated,1,2,PTH
FMAT,2
INCH
; #@! TA.AperFunction,Plated,PTH,ViaDrill
T1C0.0157
; #@! TA.AperFunction,Plated,PTH,ComponentDrill
T2C0.0315
; #@! TA.AperFunction,Plated,PTH,ComponentDrill
T3C0.0394
%
G90
G05
T1
X4.9914Y-3.994
X5.018Y-3.902
X5.054Y-4.204
X5.254Y-3.714
X5.286Y-3.784
X5.35Y-4.38
X5.364Y-4.206
X5.458Y-4.222
X5.478Y-3.456
X5.522Y-4.186
X5.6406Y-3.7554
X5.6745Y-3.7815
X5.7155Y-3.86
X5.7494Y-4.2626
X5.7509Y-4.046
X6.19Y-3.824
X6.278Y-3.7994
X6.414Y-3.578
X6.676Y-4.002
T2
X5.07Y-3.634
X5.07Y-3.734
X5.07Y-3.834
X5.07Y-3.934
X5.07Y-4.034
X5.17Y-3.534
X5.17Y-3.634
X5.17Y-3.734
X5.17Y-3.834
X5.17Y-3.934
X5.17Y-4.034
X5.17Y-4.134
X5.27Y-3.534
X5.27Y-3.634
X5.27Y-4.034
X5.27Y-4.134
X5.37Y-3.534
X5.37Y-3.634
X5.37Y-4.034
X5.37Y-4.134
X5.47Y-3.534
X5.47Y-3.634
X5.47Y-3.734
X5.47Y-3.834
X5.47Y-3.934
X5.47Y-4.034
X5.47Y-4.134
X5.57Y-3.634
X5.57Y-3.734
X5.57Y-3.834
X5.57Y-3.934
X5.57Y-4.034
X5.778Y-3.492
X5.822Y-3.8896
X5.822Y-3.988
X5.878Y-3.492
X5.944Y-3.904
X5.944Y-4.204
X5.978Y-3.492
X6.044Y-3.904
X6.044Y-4.204
X6.078Y-3.492
X6.144Y-3.904
X6.144Y-4.204
X6.178Y-3.492
X6.244Y-3.904
X6.244Y-4.204
X6.278Y-3.492
X6.344Y-3.904
X6.344Y-4.204
X6.378Y-3.492
X6.444Y-3.904
X6.444Y-4.204
X6.478Y-3.492
X6.544Y-3.904
X6.544Y-4.204
X6.578Y-3.492
X6.644Y-3.904
X6.644Y-4.204
X6.768Y-4.21
X6.768Y-4.3084
X6.78Y-3.448
X6.78Y-3.748
X6.88Y-3.448
X6.88Y-3.748
X6.98Y-3.448
X6.98Y-3.748
X7.08Y-3.448
X7.08Y-3.748
T3
X7.11Y-4.204
M30
