%TF.GenerationSoftware,KiCad,Pcbnew,7.0.10*%
%TF.CreationDate,2024-04-12T13:43:35-04:00*%
%TF.ProjectId,cbm2romcart,63626d32-726f-46d6-9361-72742e6b6963,rev?*%
%TF.SameCoordinates,Original*%
%TF.FileFunction,Legend,Top*%
%TF.FilePolarity,Positive*%
%FSLAX46Y46*%
G04 Gerber Fmt 4.6, Leading zero omitted, Abs format (unit mm)*
G04 Created by KiCad (PCBNEW 7.0.10) date 2024-04-12 13:43:35*
%MOMM*%
%LPD*%
G01*
G04 APERTURE LIST*
%ADD10C,0.150000*%
%ADD11C,0.200000*%
%ADD12C,0.250000*%
%ADD13C,0.300000*%
%ADD14C,0.120000*%
%ADD15C,0.100000*%
G04 APERTURE END LIST*
D10*
X173964600Y-99161600D02*
X175844200Y-99161600D01*
X175844200Y-102158800D01*
X173964600Y-102158800D01*
X173964600Y-99161600D01*
G36*
X173964600Y-99161600D02*
G01*
X175844200Y-99161600D01*
X175844200Y-102158800D01*
X173964600Y-102158800D01*
X173964600Y-99161600D01*
G37*
D11*
G36*
X175342935Y-98911637D02*
G01*
X173869717Y-98911637D01*
X173869717Y-98478304D01*
X174012574Y-98478304D01*
X174013322Y-98480606D01*
X174012681Y-98482944D01*
X174022805Y-98509793D01*
X174031672Y-98537083D01*
X174033632Y-98538507D01*
X174034487Y-98540773D01*
X174110677Y-98636011D01*
X174124855Y-98645338D01*
X174135764Y-98658342D01*
X174211956Y-98705961D01*
X174224545Y-98709101D01*
X174235128Y-98716609D01*
X174387508Y-98764228D01*
X174402796Y-98764055D01*
X174417336Y-98768780D01*
X174798288Y-98768780D01*
X174812827Y-98764055D01*
X174828115Y-98764228D01*
X174980496Y-98716609D01*
X174991077Y-98709101D01*
X175003669Y-98705961D01*
X175079860Y-98658342D01*
X175119582Y-98610994D01*
X175123888Y-98549341D01*
X175091132Y-98496931D01*
X175033827Y-98473784D01*
X174973861Y-98488742D01*
X174908570Y-98529547D01*
X174783027Y-98568780D01*
X174432597Y-98568780D01*
X174307054Y-98529548D01*
X174256208Y-98497769D01*
X174212574Y-98443226D01*
X174212574Y-98408065D01*
X174264423Y-98310846D01*
X175156050Y-97753580D01*
X175158380Y-97750802D01*
X175161829Y-97749682D01*
X175178042Y-97727365D01*
X175195773Y-97706232D01*
X175196025Y-97702614D01*
X175198156Y-97699682D01*
X175198156Y-97672104D01*
X175200078Y-97644579D01*
X175198156Y-97641503D01*
X175198156Y-97637878D01*
X175181942Y-97615561D01*
X175167322Y-97592169D01*
X175163959Y-97590810D01*
X175161829Y-97587878D01*
X175135602Y-97579356D01*
X175110017Y-97569022D01*
X175106497Y-97569899D01*
X175103050Y-97568780D01*
X174112574Y-97568780D01*
X174053795Y-97587878D01*
X174017468Y-97637878D01*
X174017468Y-97699682D01*
X174053795Y-97749682D01*
X174112574Y-97768780D01*
X174754370Y-97768780D01*
X174135764Y-98155409D01*
X174119148Y-98175214D01*
X174100528Y-98193151D01*
X174024339Y-98336007D01*
X174020086Y-98359943D01*
X174012574Y-98383066D01*
X174012574Y-98478304D01*
X173869717Y-98478304D01*
X173869717Y-97425923D01*
X175342935Y-97425923D01*
X175342935Y-98911637D01*
G37*
D12*
G36*
X172275504Y-101981385D02*
G01*
X171965727Y-101826497D01*
X172275504Y-101671608D01*
X172275504Y-101981385D01*
G37*
G36*
X171975041Y-100199364D02*
G01*
X172001498Y-100239050D01*
X172037409Y-100346783D01*
X172037409Y-100701498D01*
X171811219Y-100701498D01*
X171811219Y-100346781D01*
X171847128Y-100239051D01*
X171873587Y-100199364D01*
X171918362Y-100165783D01*
X171930266Y-100165783D01*
X171975041Y-100199364D01*
G37*
G36*
X172498851Y-100127936D02*
G01*
X172525309Y-100167623D01*
X172561219Y-100275354D01*
X172561219Y-100701498D01*
X172287409Y-100701498D01*
X172287409Y-100340217D01*
X172326985Y-100162123D01*
X172349777Y-100127935D01*
X172394551Y-100094355D01*
X172454076Y-100094355D01*
X172498851Y-100127936D01*
G37*
G36*
X172954076Y-105308641D02*
G01*
X171418362Y-105308641D01*
X171418362Y-105040784D01*
X171561219Y-105040784D01*
X171563789Y-105049539D01*
X171562491Y-105058573D01*
X171573557Y-105082805D01*
X171581062Y-105108364D01*
X171587958Y-105114339D01*
X171591750Y-105122642D01*
X171614162Y-105137045D01*
X171634292Y-105154488D01*
X171643324Y-105155786D01*
X171651002Y-105160721D01*
X171686219Y-105165784D01*
X172686219Y-105165784D01*
X172694974Y-105163213D01*
X172704008Y-105164512D01*
X172728240Y-105153445D01*
X172753799Y-105145941D01*
X172759774Y-105139044D01*
X172768077Y-105135253D01*
X172782480Y-105112840D01*
X172799923Y-105092711D01*
X172801221Y-105083678D01*
X172806156Y-105076001D01*
X172811219Y-105040784D01*
X172811219Y-104326498D01*
X172791376Y-104258918D01*
X172738146Y-104212794D01*
X172668430Y-104202770D01*
X172604361Y-104232029D01*
X172566282Y-104291281D01*
X172561219Y-104326498D01*
X172561219Y-104915784D01*
X172287409Y-104915784D01*
X172287409Y-104540784D01*
X172267566Y-104473204D01*
X172214336Y-104427080D01*
X172144620Y-104417056D01*
X172080551Y-104446315D01*
X172042472Y-104505567D01*
X172037409Y-104540784D01*
X172037409Y-104915784D01*
X171811219Y-104915784D01*
X171811219Y-104326498D01*
X171791376Y-104258918D01*
X171738146Y-104212794D01*
X171668430Y-104202770D01*
X171604361Y-104232029D01*
X171566282Y-104291281D01*
X171561219Y-104326498D01*
X171561219Y-105040784D01*
X171418362Y-105040784D01*
X171418362Y-103701430D01*
X171562491Y-103701430D01*
X171566142Y-103709425D01*
X171566095Y-103718213D01*
X171580548Y-103740971D01*
X171591750Y-103765499D01*
X171599143Y-103770250D01*
X171603855Y-103777669D01*
X171628320Y-103789001D01*
X171651002Y-103803578D01*
X171663745Y-103805410D01*
X171667765Y-103807272D01*
X171672317Y-103806642D01*
X171686219Y-103808641D01*
X172686219Y-103808641D01*
X172753799Y-103788798D01*
X172799923Y-103735568D01*
X172809947Y-103665852D01*
X172780688Y-103601783D01*
X172721436Y-103563704D01*
X172686219Y-103558641D01*
X172024126Y-103558641D01*
X172767568Y-102921405D01*
X172782267Y-102898800D01*
X172799923Y-102878425D01*
X172801173Y-102869727D01*
X172805965Y-102862359D01*
X172806109Y-102835397D01*
X172809947Y-102808709D01*
X172806295Y-102800713D01*
X172806343Y-102791926D01*
X172791889Y-102769167D01*
X172780688Y-102744640D01*
X172773294Y-102739888D01*
X172768583Y-102732470D01*
X172744117Y-102721137D01*
X172721436Y-102706561D01*
X172708692Y-102704728D01*
X172704673Y-102702867D01*
X172700120Y-102703496D01*
X172686219Y-102701498D01*
X171686219Y-102701498D01*
X171618639Y-102721341D01*
X171572515Y-102774571D01*
X171562491Y-102844287D01*
X171591750Y-102908356D01*
X171651002Y-102946435D01*
X171686219Y-102951498D01*
X172348312Y-102951498D01*
X171604870Y-103588734D01*
X171590170Y-103611338D01*
X171572515Y-103631714D01*
X171571264Y-103640411D01*
X171566473Y-103647780D01*
X171566328Y-103674741D01*
X171562491Y-103701430D01*
X171418362Y-103701430D01*
X171418362Y-101830902D01*
X171561297Y-101830902D01*
X171565595Y-101843837D01*
X171565115Y-101857465D01*
X171576487Y-101876611D01*
X171583509Y-101897741D01*
X171594121Y-101906300D01*
X171601083Y-101918022D01*
X171630317Y-101938300D01*
X172630317Y-102438300D01*
X172699637Y-102450775D01*
X172764696Y-102423792D01*
X172804840Y-102365919D01*
X172807323Y-102295529D01*
X172771356Y-102234972D01*
X172742121Y-102214694D01*
X172525504Y-102106385D01*
X172525504Y-101546608D01*
X172742121Y-101438300D01*
X172793692Y-101390330D01*
X172811141Y-101322092D01*
X172788929Y-101255253D01*
X172734107Y-101211033D01*
X172664081Y-101203473D01*
X172630317Y-101214694D01*
X171630317Y-101714694D01*
X171620334Y-101723979D01*
X171607742Y-101729202D01*
X171595051Y-101747497D01*
X171578746Y-101762664D01*
X171575368Y-101775872D01*
X171567598Y-101787075D01*
X171566812Y-101809330D01*
X171561297Y-101830902D01*
X171418362Y-101830902D01*
X171418362Y-100826498D01*
X171561219Y-100826498D01*
X171563789Y-100835253D01*
X171562491Y-100844287D01*
X171573557Y-100868519D01*
X171581062Y-100894078D01*
X171587958Y-100900053D01*
X171591750Y-100908356D01*
X171614162Y-100922759D01*
X171634292Y-100940202D01*
X171643324Y-100941500D01*
X171651002Y-100946435D01*
X171686219Y-100951498D01*
X172686219Y-100951498D01*
X172694974Y-100948927D01*
X172704008Y-100950226D01*
X172728240Y-100939159D01*
X172753799Y-100931655D01*
X172759774Y-100924758D01*
X172768077Y-100920967D01*
X172782480Y-100898554D01*
X172799923Y-100878425D01*
X172801221Y-100869392D01*
X172806156Y-100861715D01*
X172811219Y-100826498D01*
X172811219Y-100255069D01*
X172810559Y-100252822D01*
X172811138Y-100250551D01*
X172804804Y-100215540D01*
X172757185Y-100072684D01*
X172756053Y-100071056D01*
X172742606Y-100042874D01*
X172694986Y-99971445D01*
X172692325Y-99969216D01*
X172691115Y-99965963D01*
X172665980Y-99940783D01*
X172570742Y-99869355D01*
X172549784Y-99861516D01*
X172530959Y-99849418D01*
X172508994Y-99846260D01*
X172504772Y-99844681D01*
X172502074Y-99845265D01*
X172495742Y-99844355D01*
X172352885Y-99844355D01*
X172331417Y-99850658D01*
X172309097Y-99852275D01*
X172289629Y-99862928D01*
X172285305Y-99864198D01*
X172283497Y-99866283D01*
X172277885Y-99869355D01*
X172182647Y-99940783D01*
X172180569Y-99943563D01*
X172177388Y-99944952D01*
X172153641Y-99971446D01*
X172131699Y-100004358D01*
X172046933Y-99940783D01*
X172025975Y-99932944D01*
X172007150Y-99920846D01*
X171985186Y-99917688D01*
X171980964Y-99916109D01*
X171978265Y-99916693D01*
X171971933Y-99915783D01*
X171876695Y-99915783D01*
X171855227Y-99922086D01*
X171832906Y-99923703D01*
X171813438Y-99934356D01*
X171809115Y-99935626D01*
X171807308Y-99937711D01*
X171801695Y-99940783D01*
X171706457Y-100012212D01*
X171704379Y-100014992D01*
X171701198Y-100016381D01*
X171677451Y-100042875D01*
X171629831Y-100114304D01*
X171629239Y-100116200D01*
X171615252Y-100144113D01*
X171567634Y-100286970D01*
X171567549Y-100289308D01*
X171566282Y-100291281D01*
X171561219Y-100326498D01*
X171561219Y-100826498D01*
X171418362Y-100826498D01*
X171418362Y-99344287D01*
X171562491Y-99344287D01*
X171591750Y-99408356D01*
X171651002Y-99446435D01*
X171686219Y-99451498D01*
X172686219Y-99451498D01*
X172694974Y-99448927D01*
X172704008Y-99450226D01*
X172728240Y-99439159D01*
X172753799Y-99431655D01*
X172759774Y-99424758D01*
X172768077Y-99420967D01*
X172782480Y-99398554D01*
X172799923Y-99378425D01*
X172801221Y-99369392D01*
X172806156Y-99361715D01*
X172811219Y-99326498D01*
X172811219Y-98612212D01*
X172791376Y-98544632D01*
X172738146Y-98498508D01*
X172668430Y-98488484D01*
X172604361Y-98517743D01*
X172566282Y-98576995D01*
X172561219Y-98612212D01*
X172561219Y-99201498D01*
X171686219Y-99201498D01*
X171618639Y-99221341D01*
X171572515Y-99274571D01*
X171562491Y-99344287D01*
X171418362Y-99344287D01*
X171418362Y-98112212D01*
X171561219Y-98112212D01*
X171563789Y-98120967D01*
X171562491Y-98130001D01*
X171573557Y-98154233D01*
X171581062Y-98179792D01*
X171587958Y-98185767D01*
X171591750Y-98194070D01*
X171614162Y-98208473D01*
X171634292Y-98225916D01*
X171643324Y-98227214D01*
X171651002Y-98232149D01*
X171686219Y-98237212D01*
X172686219Y-98237212D01*
X172694974Y-98234641D01*
X172704008Y-98235940D01*
X172728240Y-98224873D01*
X172753799Y-98217369D01*
X172759774Y-98210472D01*
X172768077Y-98206681D01*
X172782480Y-98184268D01*
X172799923Y-98164139D01*
X172801221Y-98155106D01*
X172806156Y-98147429D01*
X172811219Y-98112212D01*
X172811219Y-97397926D01*
X172791376Y-97330346D01*
X172738146Y-97284222D01*
X172668430Y-97274198D01*
X172604361Y-97303457D01*
X172566282Y-97362709D01*
X172561219Y-97397926D01*
X172561219Y-97987212D01*
X172287409Y-97987212D01*
X172287409Y-97612212D01*
X172267566Y-97544632D01*
X172214336Y-97498508D01*
X172144620Y-97488484D01*
X172080551Y-97517743D01*
X172042472Y-97576995D01*
X172037409Y-97612212D01*
X172037409Y-97987212D01*
X171811219Y-97987212D01*
X171811219Y-97397926D01*
X171791376Y-97330346D01*
X171738146Y-97284222D01*
X171668430Y-97274198D01*
X171604361Y-97303457D01*
X171566282Y-97362709D01*
X171561219Y-97397926D01*
X171561219Y-98112212D01*
X171418362Y-98112212D01*
X171418362Y-97131341D01*
X172954076Y-97131341D01*
X172954076Y-105308641D01*
G37*
D11*
G36*
X179988589Y-97808013D02*
G01*
X180039433Y-97839790D01*
X180095724Y-97910153D01*
X180159260Y-98068992D01*
X180159260Y-98268568D01*
X180095724Y-98427407D01*
X180039433Y-98497770D01*
X179988589Y-98529547D01*
X179863046Y-98568780D01*
X179741187Y-98568780D01*
X179615644Y-98529548D01*
X179564799Y-98497769D01*
X179508508Y-98427405D01*
X179444974Y-98268569D01*
X179444974Y-98068991D01*
X179508508Y-97910155D01*
X179564799Y-97839791D01*
X179615643Y-97808013D01*
X179741188Y-97768780D01*
X179863045Y-97768780D01*
X179988589Y-97808013D01*
G37*
G36*
X180502117Y-98911637D02*
G01*
X179102117Y-98911637D01*
X179102117Y-98287828D01*
X179244974Y-98287828D01*
X179250862Y-98305950D01*
X179252126Y-98324967D01*
X179328316Y-98515443D01*
X179337831Y-98526863D01*
X179343077Y-98540774D01*
X179419269Y-98636012D01*
X179433445Y-98645338D01*
X179444355Y-98658342D01*
X179520545Y-98705961D01*
X179533136Y-98709101D01*
X179543718Y-98716609D01*
X179696098Y-98764228D01*
X179711386Y-98764055D01*
X179725926Y-98768780D01*
X179878307Y-98768780D01*
X179892846Y-98764055D01*
X179908134Y-98764228D01*
X180060515Y-98716609D01*
X180071096Y-98709101D01*
X180083688Y-98705961D01*
X180159879Y-98658342D01*
X180170787Y-98645338D01*
X180184966Y-98636011D01*
X180261156Y-98540773D01*
X180266400Y-98526864D01*
X180275917Y-98515443D01*
X180352108Y-98324967D01*
X180353371Y-98305950D01*
X180359260Y-98287828D01*
X180359260Y-98049733D01*
X180353371Y-98031610D01*
X180352108Y-98012594D01*
X180275917Y-97822118D01*
X180266400Y-97810696D01*
X180261156Y-97796788D01*
X180184966Y-97701550D01*
X180170787Y-97692222D01*
X180159879Y-97679219D01*
X180083688Y-97631600D01*
X180071098Y-97628459D01*
X180060516Y-97620952D01*
X179908135Y-97573332D01*
X179892846Y-97573504D01*
X179878307Y-97568780D01*
X179725926Y-97568780D01*
X179711386Y-97573504D01*
X179696098Y-97573332D01*
X179543717Y-97620952D01*
X179533134Y-97628459D01*
X179520545Y-97631600D01*
X179444355Y-97679219D01*
X179433445Y-97692222D01*
X179419269Y-97701549D01*
X179343077Y-97796787D01*
X179337831Y-97810697D01*
X179328316Y-97822118D01*
X179252126Y-98012594D01*
X179250862Y-98031610D01*
X179244974Y-98049733D01*
X179244974Y-98287828D01*
X179102117Y-98287828D01*
X179102117Y-97425923D01*
X180502117Y-97425923D01*
X180502117Y-98911637D01*
G37*
D12*
G36*
X178475716Y-101118691D02*
G01*
X178571099Y-101182279D01*
X178620412Y-101313779D01*
X178620412Y-101601781D01*
X178571099Y-101733281D01*
X178475717Y-101796869D01*
X178367986Y-101832780D01*
X178122841Y-101832780D01*
X178015108Y-101796870D01*
X177919724Y-101733280D01*
X177870412Y-101601779D01*
X177870412Y-101313781D01*
X177919724Y-101182280D01*
X178015108Y-101118691D01*
X178122839Y-101082780D01*
X178367985Y-101082780D01*
X178475716Y-101118691D01*
G37*
G36*
X180048984Y-101832780D02*
G01*
X179622841Y-101832780D01*
X179515107Y-101796869D01*
X179475421Y-101770412D01*
X179441841Y-101725637D01*
X179441841Y-101666113D01*
X179475421Y-101621338D01*
X179515107Y-101594881D01*
X179622841Y-101558971D01*
X180048984Y-101558971D01*
X180048984Y-101832780D01*
G37*
G36*
X180513269Y-102225637D02*
G01*
X175834698Y-102225637D01*
X175834698Y-101957780D01*
X175977555Y-101957780D01*
X175986808Y-101989293D01*
X175994810Y-102021152D01*
X175996676Y-102022903D01*
X175997398Y-102025360D01*
X176022221Y-102046869D01*
X176046175Y-102069343D01*
X176048692Y-102069807D01*
X176050628Y-102071484D01*
X176083132Y-102076157D01*
X176115441Y-102082115D01*
X176117811Y-102081143D01*
X176120344Y-102081508D01*
X176150213Y-102067867D01*
X176180616Y-102055410D01*
X176182958Y-102052913D01*
X176184413Y-102052249D01*
X176186221Y-102049435D01*
X176204959Y-102029463D01*
X176602555Y-101461469D01*
X177000151Y-102029463D01*
X177025802Y-102049972D01*
X177050628Y-102071484D01*
X177053162Y-102071848D01*
X177055162Y-102073447D01*
X177087824Y-102076832D01*
X177120344Y-102081508D01*
X177122673Y-102080444D01*
X177125220Y-102080708D01*
X177154528Y-102065896D01*
X177184413Y-102052249D01*
X177185797Y-102050094D01*
X177188082Y-102048940D01*
X177204728Y-102020637D01*
X177222492Y-101992997D01*
X177222979Y-101989607D01*
X177223790Y-101988229D01*
X177223657Y-101984887D01*
X177227555Y-101957780D01*
X177227555Y-101624447D01*
X177620412Y-101624447D01*
X177621740Y-101628972D01*
X177620746Y-101633585D01*
X177628371Y-101668338D01*
X177699800Y-101858814D01*
X177712530Y-101875756D01*
X177721010Y-101895182D01*
X177739739Y-101911969D01*
X177742109Y-101915124D01*
X177744069Y-101915851D01*
X177747503Y-101918929D01*
X177890361Y-102014167D01*
X177892253Y-102014757D01*
X177920170Y-102028746D01*
X178063026Y-102076365D01*
X178065365Y-102076449D01*
X178067338Y-102077717D01*
X178102555Y-102082780D01*
X178388269Y-102082780D01*
X178390515Y-102082120D01*
X178392786Y-102082699D01*
X178427797Y-102076365D01*
X178570655Y-102028747D01*
X178572289Y-102027611D01*
X178600465Y-102014167D01*
X178743322Y-101918929D01*
X178756929Y-101902681D01*
X178773919Y-101890010D01*
X178786010Y-101867958D01*
X178788545Y-101864932D01*
X178788807Y-101862856D01*
X178791025Y-101858813D01*
X178825341Y-101767304D01*
X179191841Y-101767304D01*
X179198144Y-101788771D01*
X179199761Y-101811092D01*
X179210414Y-101830559D01*
X179211684Y-101834884D01*
X179213769Y-101836691D01*
X179216841Y-101842304D01*
X179288269Y-101937542D01*
X179291049Y-101939619D01*
X179292438Y-101942801D01*
X179318932Y-101966549D01*
X179390361Y-102014168D01*
X179392258Y-102014759D01*
X179420170Y-102028746D01*
X179563026Y-102076365D01*
X179565365Y-102076449D01*
X179567338Y-102077717D01*
X179602555Y-102082780D01*
X180173984Y-102082780D01*
X180182739Y-102080209D01*
X180191773Y-102081508D01*
X180216005Y-102070441D01*
X180241564Y-102062937D01*
X180247539Y-102056040D01*
X180255842Y-102052249D01*
X180270245Y-102029836D01*
X180287688Y-102009707D01*
X180288986Y-102000674D01*
X180293921Y-101992997D01*
X180298984Y-101957780D01*
X180298984Y-100957780D01*
X180279141Y-100890200D01*
X180225911Y-100844076D01*
X180156195Y-100834052D01*
X180092126Y-100863311D01*
X180054047Y-100922563D01*
X180048984Y-100957780D01*
X180048984Y-101308971D01*
X179866841Y-101308971D01*
X179403048Y-100867263D01*
X179340426Y-100835025D01*
X179270315Y-100841761D01*
X179214977Y-100885332D01*
X179191979Y-100951905D01*
X179208624Y-101020343D01*
X179230634Y-101048297D01*
X179524544Y-101328213D01*
X179420170Y-101363005D01*
X179418542Y-101364135D01*
X179390361Y-101377583D01*
X179318932Y-101425202D01*
X179316702Y-101427863D01*
X179313449Y-101429074D01*
X179288269Y-101454209D01*
X179216841Y-101549447D01*
X179209002Y-101570404D01*
X179196904Y-101589230D01*
X179193746Y-101611194D01*
X179192167Y-101615417D01*
X179192751Y-101618114D01*
X179191841Y-101624447D01*
X179191841Y-101767304D01*
X178825341Y-101767304D01*
X178862453Y-101668337D01*
X178862797Y-101663633D01*
X178865349Y-101659664D01*
X178870412Y-101624447D01*
X178870412Y-101291114D01*
X178869083Y-101286588D01*
X178870078Y-101281976D01*
X178862453Y-101247224D01*
X178791025Y-101056748D01*
X178778297Y-101039807D01*
X178769816Y-101020379D01*
X178751085Y-101003590D01*
X178748717Y-101000438D01*
X178746757Y-100999710D01*
X178743322Y-100996632D01*
X178600465Y-100901394D01*
X178598568Y-100900802D01*
X178570656Y-100886815D01*
X178427798Y-100839195D01*
X178425458Y-100839110D01*
X178423486Y-100837843D01*
X178388269Y-100832780D01*
X178102555Y-100832780D01*
X178100308Y-100833439D01*
X178098037Y-100832861D01*
X178063026Y-100839195D01*
X177920169Y-100886815D01*
X177918541Y-100887946D01*
X177890361Y-100901394D01*
X177747503Y-100996632D01*
X177733897Y-101012877D01*
X177716906Y-101025550D01*
X177704813Y-101047604D01*
X177702280Y-101050629D01*
X177702017Y-101052703D01*
X177699800Y-101056747D01*
X177628371Y-101247223D01*
X177628026Y-101251927D01*
X177625475Y-101255897D01*
X177620412Y-101291114D01*
X177620412Y-101624447D01*
X177227555Y-101624447D01*
X177227555Y-100957780D01*
X177207712Y-100890200D01*
X177154482Y-100844076D01*
X177084766Y-100834052D01*
X177020697Y-100863311D01*
X176982618Y-100922563D01*
X176977555Y-100957780D01*
X176977555Y-101561234D01*
X176704959Y-101171812D01*
X176681159Y-101152782D01*
X176658935Y-101131932D01*
X176653925Y-101131008D01*
X176649948Y-101127828D01*
X176619638Y-101124686D01*
X176589669Y-101119161D01*
X176584955Y-101121092D01*
X176579890Y-101120567D01*
X176552690Y-101134312D01*
X176524494Y-101145865D01*
X176519684Y-101150991D01*
X176517028Y-101152334D01*
X176514680Y-101156324D01*
X176500151Y-101171812D01*
X176227555Y-101561234D01*
X176227555Y-100957780D01*
X176207712Y-100890200D01*
X176154482Y-100844076D01*
X176084766Y-100834052D01*
X176020697Y-100863311D01*
X175982618Y-100922563D01*
X175977555Y-100957780D01*
X175977555Y-101957780D01*
X175834698Y-101957780D01*
X175834698Y-100365569D01*
X176621685Y-100365569D01*
X176650944Y-100429638D01*
X176710196Y-100467717D01*
X176745413Y-100472780D01*
X177602555Y-100472780D01*
X177670135Y-100452937D01*
X177716259Y-100399707D01*
X177721167Y-100365569D01*
X177907399Y-100365569D01*
X177936658Y-100429638D01*
X177995910Y-100467717D01*
X178031127Y-100472780D01*
X178745413Y-100472780D01*
X178754168Y-100470209D01*
X178763202Y-100471508D01*
X178787434Y-100460441D01*
X178812993Y-100452937D01*
X178818968Y-100446040D01*
X178827271Y-100442249D01*
X178841674Y-100419836D01*
X178859117Y-100399707D01*
X178860415Y-100390674D01*
X178865350Y-100382997D01*
X178870413Y-100347780D01*
X178870413Y-99633495D01*
X179263269Y-99633495D01*
X179269572Y-99654962D01*
X179271189Y-99677284D01*
X179281842Y-99696751D01*
X179283112Y-99701075D01*
X179285197Y-99702881D01*
X179288269Y-99708495D01*
X179359698Y-99803733D01*
X179362478Y-99805810D01*
X179363867Y-99808992D01*
X179390361Y-99832740D01*
X179461790Y-99880359D01*
X179463687Y-99880950D01*
X179491599Y-99894937D01*
X179634455Y-99942556D01*
X179639146Y-99942725D01*
X179653434Y-99947270D01*
X179929475Y-99993276D01*
X180047144Y-100032499D01*
X180086831Y-100058958D01*
X180120412Y-100103732D01*
X180120412Y-100115637D01*
X180086831Y-100160411D01*
X180047144Y-100186870D01*
X179939415Y-100222780D01*
X179616274Y-100222780D01*
X179415385Y-100178138D01*
X179345110Y-100182848D01*
X179288537Y-100224805D01*
X179263628Y-100290686D01*
X179278292Y-100359577D01*
X179327873Y-100409602D01*
X179361153Y-100422184D01*
X179575439Y-100469803D01*
X179579809Y-100469510D01*
X179602555Y-100472780D01*
X179959698Y-100472780D01*
X179961944Y-100472120D01*
X179964216Y-100472699D01*
X179999226Y-100466365D01*
X180142083Y-100418747D01*
X180143714Y-100417613D01*
X180171892Y-100404168D01*
X180243321Y-100356548D01*
X180245547Y-100353889D01*
X180248804Y-100352678D01*
X180273984Y-100327542D01*
X180345412Y-100232304D01*
X180353250Y-100211346D01*
X180365349Y-100192521D01*
X180368506Y-100170556D01*
X180370086Y-100166334D01*
X180369501Y-100163636D01*
X180370412Y-100157304D01*
X180370412Y-100062066D01*
X180364108Y-100040598D01*
X180362492Y-100018278D01*
X180351838Y-99998810D01*
X180350569Y-99994486D01*
X180348483Y-99992678D01*
X180345412Y-99987066D01*
X180273984Y-99891828D01*
X180271203Y-99889750D01*
X180269815Y-99886569D01*
X180243321Y-99862822D01*
X180171892Y-99815202D01*
X180169995Y-99814610D01*
X180142083Y-99800623D01*
X179999226Y-99753005D01*
X179994536Y-99752835D01*
X179980248Y-99748291D01*
X179704211Y-99702284D01*
X179586536Y-99663060D01*
X179546850Y-99636603D01*
X179513269Y-99591828D01*
X179513269Y-99579923D01*
X179546850Y-99535148D01*
X179586535Y-99508691D01*
X179694268Y-99472780D01*
X180017406Y-99472780D01*
X180218295Y-99517423D01*
X180288570Y-99512713D01*
X180345143Y-99470757D01*
X180370052Y-99404875D01*
X180355389Y-99335985D01*
X180305808Y-99285959D01*
X180272528Y-99273377D01*
X180058244Y-99225757D01*
X180053872Y-99226050D01*
X180031127Y-99222780D01*
X179673984Y-99222780D01*
X179671737Y-99223439D01*
X179669466Y-99222861D01*
X179634455Y-99229195D01*
X179491598Y-99276815D01*
X179489968Y-99277947D01*
X179461790Y-99291393D01*
X179390361Y-99339012D01*
X179388132Y-99341672D01*
X179384879Y-99342883D01*
X179359698Y-99368019D01*
X179288269Y-99463257D01*
X179280430Y-99484214D01*
X179268332Y-99503040D01*
X179265174Y-99525003D01*
X179263595Y-99529226D01*
X179264179Y-99531924D01*
X179263269Y-99538257D01*
X179263269Y-99633495D01*
X178870413Y-99633495D01*
X178870413Y-99347780D01*
X178867842Y-99339024D01*
X178869141Y-99329991D01*
X178858074Y-99305758D01*
X178850570Y-99280200D01*
X178843673Y-99274224D01*
X178839882Y-99265922D01*
X178817469Y-99251518D01*
X178797340Y-99234076D01*
X178788307Y-99232777D01*
X178780630Y-99227843D01*
X178745413Y-99222780D01*
X178031127Y-99222780D01*
X177963547Y-99242623D01*
X177917423Y-99295853D01*
X177907399Y-99365569D01*
X177936658Y-99429638D01*
X177995910Y-99467717D01*
X178031127Y-99472780D01*
X178620413Y-99472780D01*
X178620413Y-99746590D01*
X178245413Y-99746590D01*
X178177833Y-99766433D01*
X178131709Y-99819663D01*
X178121685Y-99889379D01*
X178150944Y-99953448D01*
X178210196Y-99991527D01*
X178245413Y-99996590D01*
X178620413Y-99996590D01*
X178620413Y-100222780D01*
X178031127Y-100222780D01*
X177963547Y-100242623D01*
X177917423Y-100295853D01*
X177907399Y-100365569D01*
X177721167Y-100365569D01*
X177726283Y-100329991D01*
X177697024Y-100265922D01*
X177637772Y-100227843D01*
X177602555Y-100222780D01*
X177298984Y-100222780D01*
X177298984Y-99347780D01*
X177279141Y-99280200D01*
X177225911Y-99234076D01*
X177156195Y-99224052D01*
X177092126Y-99253311D01*
X177054047Y-99312563D01*
X177048984Y-99347780D01*
X177048984Y-100222780D01*
X176745413Y-100222780D01*
X176677833Y-100242623D01*
X176631709Y-100295853D01*
X176621685Y-100365569D01*
X175834698Y-100365569D01*
X175834698Y-99079923D01*
X180513269Y-99079923D01*
X180513269Y-102225637D01*
G37*
D11*
G36*
X177911311Y-98910859D02*
G01*
X176516211Y-98910859D01*
X176516211Y-97699682D01*
X176659068Y-97699682D01*
X176695395Y-97749682D01*
X176754174Y-97768780D01*
X177111317Y-97768780D01*
X177111317Y-98668780D01*
X177118074Y-98689577D01*
X177120798Y-98711283D01*
X177127422Y-98718349D01*
X177130415Y-98727559D01*
X177148110Y-98740415D01*
X177163069Y-98756371D01*
X177172579Y-98758193D01*
X177180415Y-98763886D01*
X177202288Y-98763886D01*
X177223768Y-98768002D01*
X177232534Y-98763886D01*
X177242219Y-98763886D01*
X177259914Y-98751029D01*
X177279711Y-98741734D01*
X177424972Y-98605551D01*
X177558178Y-98522297D01*
X177698287Y-98478514D01*
X177748694Y-98442753D01*
X177768454Y-98384194D01*
X177750019Y-98325203D01*
X177700432Y-98288314D01*
X177638632Y-98287618D01*
X177486252Y-98335237D01*
X177475670Y-98342744D01*
X177463079Y-98345885D01*
X177311317Y-98440736D01*
X177311317Y-97768780D01*
X177668460Y-97768780D01*
X177727239Y-97749682D01*
X177763566Y-97699682D01*
X177763566Y-97637878D01*
X177727239Y-97587878D01*
X177668460Y-97568780D01*
X176754174Y-97568780D01*
X176695395Y-97587878D01*
X176659068Y-97637878D01*
X176659068Y-97699682D01*
X176516211Y-97699682D01*
X176516211Y-97425923D01*
X177911311Y-97425923D01*
X177911311Y-98910859D01*
G37*
D10*
X152346779Y-95160771D02*
X152299160Y-95113152D01*
X152299160Y-95113152D02*
X152203922Y-94970295D01*
X152203922Y-94970295D02*
X152156303Y-94875057D01*
X152156303Y-94875057D02*
X152108684Y-94732200D01*
X152108684Y-94732200D02*
X152061065Y-94494104D01*
X152061065Y-94494104D02*
X152061065Y-94303628D01*
X152061065Y-94303628D02*
X152108684Y-94065533D01*
X152108684Y-94065533D02*
X152156303Y-93922676D01*
X152156303Y-93922676D02*
X152203922Y-93827438D01*
X152203922Y-93827438D02*
X152299160Y-93684580D01*
X152299160Y-93684580D02*
X152346779Y-93636961D01*
X153299160Y-94684580D02*
X153251541Y-94732200D01*
X153251541Y-94732200D02*
X153108684Y-94779819D01*
X153108684Y-94779819D02*
X153013446Y-94779819D01*
X153013446Y-94779819D02*
X152870589Y-94732200D01*
X152870589Y-94732200D02*
X152775351Y-94636961D01*
X152775351Y-94636961D02*
X152727732Y-94541723D01*
X152727732Y-94541723D02*
X152680113Y-94351247D01*
X152680113Y-94351247D02*
X152680113Y-94208390D01*
X152680113Y-94208390D02*
X152727732Y-94017914D01*
X152727732Y-94017914D02*
X152775351Y-93922676D01*
X152775351Y-93922676D02*
X152870589Y-93827438D01*
X152870589Y-93827438D02*
X153013446Y-93779819D01*
X153013446Y-93779819D02*
X153108684Y-93779819D01*
X153108684Y-93779819D02*
X153251541Y-93827438D01*
X153251541Y-93827438D02*
X153299160Y-93875057D01*
X153632494Y-95160771D02*
X153680113Y-95113152D01*
X153680113Y-95113152D02*
X153775351Y-94970295D01*
X153775351Y-94970295D02*
X153822970Y-94875057D01*
X153822970Y-94875057D02*
X153870589Y-94732200D01*
X153870589Y-94732200D02*
X153918208Y-94494104D01*
X153918208Y-94494104D02*
X153918208Y-94303628D01*
X153918208Y-94303628D02*
X153870589Y-94065533D01*
X153870589Y-94065533D02*
X153822970Y-93922676D01*
X153822970Y-93922676D02*
X153775351Y-93827438D01*
X153775351Y-93827438D02*
X153680113Y-93684580D01*
X153680113Y-93684580D02*
X153632494Y-93636961D01*
X155108685Y-94732200D02*
X155251542Y-94779819D01*
X155251542Y-94779819D02*
X155489637Y-94779819D01*
X155489637Y-94779819D02*
X155584875Y-94732200D01*
X155584875Y-94732200D02*
X155632494Y-94684580D01*
X155632494Y-94684580D02*
X155680113Y-94589342D01*
X155680113Y-94589342D02*
X155680113Y-94494104D01*
X155680113Y-94494104D02*
X155632494Y-94398866D01*
X155632494Y-94398866D02*
X155584875Y-94351247D01*
X155584875Y-94351247D02*
X155489637Y-94303628D01*
X155489637Y-94303628D02*
X155299161Y-94256009D01*
X155299161Y-94256009D02*
X155203923Y-94208390D01*
X155203923Y-94208390D02*
X155156304Y-94160771D01*
X155156304Y-94160771D02*
X155108685Y-94065533D01*
X155108685Y-94065533D02*
X155108685Y-93970295D01*
X155108685Y-93970295D02*
X155156304Y-93875057D01*
X155156304Y-93875057D02*
X155203923Y-93827438D01*
X155203923Y-93827438D02*
X155299161Y-93779819D01*
X155299161Y-93779819D02*
X155537256Y-93779819D01*
X155537256Y-93779819D02*
X155680113Y-93827438D01*
X155965828Y-94113152D02*
X156346780Y-94113152D01*
X156108685Y-93779819D02*
X156108685Y-94636961D01*
X156108685Y-94636961D02*
X156156304Y-94732200D01*
X156156304Y-94732200D02*
X156251542Y-94779819D01*
X156251542Y-94779819D02*
X156346780Y-94779819D01*
X157061066Y-94732200D02*
X156965828Y-94779819D01*
X156965828Y-94779819D02*
X156775352Y-94779819D01*
X156775352Y-94779819D02*
X156680114Y-94732200D01*
X156680114Y-94732200D02*
X156632495Y-94636961D01*
X156632495Y-94636961D02*
X156632495Y-94256009D01*
X156632495Y-94256009D02*
X156680114Y-94160771D01*
X156680114Y-94160771D02*
X156775352Y-94113152D01*
X156775352Y-94113152D02*
X156965828Y-94113152D01*
X156965828Y-94113152D02*
X157061066Y-94160771D01*
X157061066Y-94160771D02*
X157108685Y-94256009D01*
X157108685Y-94256009D02*
X157108685Y-94351247D01*
X157108685Y-94351247D02*
X156632495Y-94446485D01*
X157442019Y-94113152D02*
X157680114Y-94779819D01*
X157680114Y-94779819D02*
X157918209Y-94113152D01*
X158680114Y-94732200D02*
X158584876Y-94779819D01*
X158584876Y-94779819D02*
X158394400Y-94779819D01*
X158394400Y-94779819D02*
X158299162Y-94732200D01*
X158299162Y-94732200D02*
X158251543Y-94636961D01*
X158251543Y-94636961D02*
X158251543Y-94256009D01*
X158251543Y-94256009D02*
X158299162Y-94160771D01*
X158299162Y-94160771D02*
X158394400Y-94113152D01*
X158394400Y-94113152D02*
X158584876Y-94113152D01*
X158584876Y-94113152D02*
X158680114Y-94160771D01*
X158680114Y-94160771D02*
X158727733Y-94256009D01*
X158727733Y-94256009D02*
X158727733Y-94351247D01*
X158727733Y-94351247D02*
X158251543Y-94446485D01*
X160203924Y-93779819D02*
X160203924Y-94494104D01*
X160203924Y-94494104D02*
X160156305Y-94636961D01*
X160156305Y-94636961D02*
X160061067Y-94732200D01*
X160061067Y-94732200D02*
X159918210Y-94779819D01*
X159918210Y-94779819D02*
X159822972Y-94779819D01*
X160680115Y-94684580D02*
X160727734Y-94732200D01*
X160727734Y-94732200D02*
X160680115Y-94779819D01*
X160680115Y-94779819D02*
X160632496Y-94732200D01*
X160632496Y-94732200D02*
X160680115Y-94684580D01*
X160680115Y-94684580D02*
X160680115Y-94779819D01*
X162442019Y-93827438D02*
X162346781Y-93779819D01*
X162346781Y-93779819D02*
X162203924Y-93779819D01*
X162203924Y-93779819D02*
X162061067Y-93827438D01*
X162061067Y-93827438D02*
X161965829Y-93922676D01*
X161965829Y-93922676D02*
X161918210Y-94017914D01*
X161918210Y-94017914D02*
X161870591Y-94208390D01*
X161870591Y-94208390D02*
X161870591Y-94351247D01*
X161870591Y-94351247D02*
X161918210Y-94541723D01*
X161918210Y-94541723D02*
X161965829Y-94636961D01*
X161965829Y-94636961D02*
X162061067Y-94732200D01*
X162061067Y-94732200D02*
X162203924Y-94779819D01*
X162203924Y-94779819D02*
X162299162Y-94779819D01*
X162299162Y-94779819D02*
X162442019Y-94732200D01*
X162442019Y-94732200D02*
X162489638Y-94684580D01*
X162489638Y-94684580D02*
X162489638Y-94351247D01*
X162489638Y-94351247D02*
X162299162Y-94351247D01*
X162918210Y-94779819D02*
X162918210Y-94113152D01*
X162918210Y-94303628D02*
X162965829Y-94208390D01*
X162965829Y-94208390D02*
X163013448Y-94160771D01*
X163013448Y-94160771D02*
X163108686Y-94113152D01*
X163108686Y-94113152D02*
X163203924Y-94113152D01*
X163965829Y-94779819D02*
X163965829Y-94256009D01*
X163965829Y-94256009D02*
X163918210Y-94160771D01*
X163918210Y-94160771D02*
X163822972Y-94113152D01*
X163822972Y-94113152D02*
X163632496Y-94113152D01*
X163632496Y-94113152D02*
X163537258Y-94160771D01*
X163965829Y-94732200D02*
X163870591Y-94779819D01*
X163870591Y-94779819D02*
X163632496Y-94779819D01*
X163632496Y-94779819D02*
X163537258Y-94732200D01*
X163537258Y-94732200D02*
X163489639Y-94636961D01*
X163489639Y-94636961D02*
X163489639Y-94541723D01*
X163489639Y-94541723D02*
X163537258Y-94446485D01*
X163537258Y-94446485D02*
X163632496Y-94398866D01*
X163632496Y-94398866D02*
X163870591Y-94398866D01*
X163870591Y-94398866D02*
X163965829Y-94351247D01*
X164346782Y-94113152D02*
X164584877Y-94779819D01*
X164822972Y-94113152D02*
X164584877Y-94779819D01*
X164584877Y-94779819D02*
X164489639Y-95017914D01*
X164489639Y-95017914D02*
X164442020Y-95065533D01*
X164442020Y-95065533D02*
X164346782Y-95113152D01*
X151203924Y-95389819D02*
X151537257Y-96389819D01*
X151537257Y-96389819D02*
X151870590Y-95389819D01*
X152727733Y-96389819D02*
X152156305Y-96389819D01*
X152442019Y-96389819D02*
X152442019Y-95389819D01*
X152442019Y-95389819D02*
X152346781Y-95532676D01*
X152346781Y-95532676D02*
X152251543Y-95627914D01*
X152251543Y-95627914D02*
X152156305Y-95675533D01*
X153156305Y-96294580D02*
X153203924Y-96342200D01*
X153203924Y-96342200D02*
X153156305Y-96389819D01*
X153156305Y-96389819D02*
X153108686Y-96342200D01*
X153108686Y-96342200D02*
X153156305Y-96294580D01*
X153156305Y-96294580D02*
X153156305Y-96389819D01*
X153822971Y-95389819D02*
X153918209Y-95389819D01*
X153918209Y-95389819D02*
X154013447Y-95437438D01*
X154013447Y-95437438D02*
X154061066Y-95485057D01*
X154061066Y-95485057D02*
X154108685Y-95580295D01*
X154108685Y-95580295D02*
X154156304Y-95770771D01*
X154156304Y-95770771D02*
X154156304Y-96008866D01*
X154156304Y-96008866D02*
X154108685Y-96199342D01*
X154108685Y-96199342D02*
X154061066Y-96294580D01*
X154061066Y-96294580D02*
X154013447Y-96342200D01*
X154013447Y-96342200D02*
X153918209Y-96389819D01*
X153918209Y-96389819D02*
X153822971Y-96389819D01*
X153822971Y-96389819D02*
X153727733Y-96342200D01*
X153727733Y-96342200D02*
X153680114Y-96294580D01*
X153680114Y-96294580D02*
X153632495Y-96199342D01*
X153632495Y-96199342D02*
X153584876Y-96008866D01*
X153584876Y-96008866D02*
X153584876Y-95770771D01*
X153584876Y-95770771D02*
X153632495Y-95580295D01*
X153632495Y-95580295D02*
X153680114Y-95485057D01*
X153680114Y-95485057D02*
X153727733Y-95437438D01*
X153727733Y-95437438D02*
X153822971Y-95389819D01*
X154632495Y-96342200D02*
X154632495Y-96389819D01*
X154632495Y-96389819D02*
X154584876Y-96485057D01*
X154584876Y-96485057D02*
X154537257Y-96532676D01*
X155775352Y-95485057D02*
X155822971Y-95437438D01*
X155822971Y-95437438D02*
X155918209Y-95389819D01*
X155918209Y-95389819D02*
X156156304Y-95389819D01*
X156156304Y-95389819D02*
X156251542Y-95437438D01*
X156251542Y-95437438D02*
X156299161Y-95485057D01*
X156299161Y-95485057D02*
X156346780Y-95580295D01*
X156346780Y-95580295D02*
X156346780Y-95675533D01*
X156346780Y-95675533D02*
X156299161Y-95818390D01*
X156299161Y-95818390D02*
X155727733Y-96389819D01*
X155727733Y-96389819D02*
X156346780Y-96389819D01*
X156965828Y-95389819D02*
X157061066Y-95389819D01*
X157061066Y-95389819D02*
X157156304Y-95437438D01*
X157156304Y-95437438D02*
X157203923Y-95485057D01*
X157203923Y-95485057D02*
X157251542Y-95580295D01*
X157251542Y-95580295D02*
X157299161Y-95770771D01*
X157299161Y-95770771D02*
X157299161Y-96008866D01*
X157299161Y-96008866D02*
X157251542Y-96199342D01*
X157251542Y-96199342D02*
X157203923Y-96294580D01*
X157203923Y-96294580D02*
X157156304Y-96342200D01*
X157156304Y-96342200D02*
X157061066Y-96389819D01*
X157061066Y-96389819D02*
X156965828Y-96389819D01*
X156965828Y-96389819D02*
X156870590Y-96342200D01*
X156870590Y-96342200D02*
X156822971Y-96294580D01*
X156822971Y-96294580D02*
X156775352Y-96199342D01*
X156775352Y-96199342D02*
X156727733Y-96008866D01*
X156727733Y-96008866D02*
X156727733Y-95770771D01*
X156727733Y-95770771D02*
X156775352Y-95580295D01*
X156775352Y-95580295D02*
X156822971Y-95485057D01*
X156822971Y-95485057D02*
X156870590Y-95437438D01*
X156870590Y-95437438D02*
X156965828Y-95389819D01*
X157680114Y-95485057D02*
X157727733Y-95437438D01*
X157727733Y-95437438D02*
X157822971Y-95389819D01*
X157822971Y-95389819D02*
X158061066Y-95389819D01*
X158061066Y-95389819D02*
X158156304Y-95437438D01*
X158156304Y-95437438D02*
X158203923Y-95485057D01*
X158203923Y-95485057D02*
X158251542Y-95580295D01*
X158251542Y-95580295D02*
X158251542Y-95675533D01*
X158251542Y-95675533D02*
X158203923Y-95818390D01*
X158203923Y-95818390D02*
X157632495Y-96389819D01*
X157632495Y-96389819D02*
X158251542Y-96389819D01*
X159108685Y-95723152D02*
X159108685Y-96389819D01*
X158870590Y-95342200D02*
X158632495Y-96056485D01*
X158632495Y-96056485D02*
X159251542Y-96056485D01*
X159632495Y-96008866D02*
X160394400Y-96008866D01*
X161061066Y-95389819D02*
X161156304Y-95389819D01*
X161156304Y-95389819D02*
X161251542Y-95437438D01*
X161251542Y-95437438D02*
X161299161Y-95485057D01*
X161299161Y-95485057D02*
X161346780Y-95580295D01*
X161346780Y-95580295D02*
X161394399Y-95770771D01*
X161394399Y-95770771D02*
X161394399Y-96008866D01*
X161394399Y-96008866D02*
X161346780Y-96199342D01*
X161346780Y-96199342D02*
X161299161Y-96294580D01*
X161299161Y-96294580D02*
X161251542Y-96342200D01*
X161251542Y-96342200D02*
X161156304Y-96389819D01*
X161156304Y-96389819D02*
X161061066Y-96389819D01*
X161061066Y-96389819D02*
X160965828Y-96342200D01*
X160965828Y-96342200D02*
X160918209Y-96294580D01*
X160918209Y-96294580D02*
X160870590Y-96199342D01*
X160870590Y-96199342D02*
X160822971Y-96008866D01*
X160822971Y-96008866D02*
X160822971Y-95770771D01*
X160822971Y-95770771D02*
X160870590Y-95580295D01*
X160870590Y-95580295D02*
X160918209Y-95485057D01*
X160918209Y-95485057D02*
X160965828Y-95437438D01*
X160965828Y-95437438D02*
X161061066Y-95389819D01*
X162251542Y-95723152D02*
X162251542Y-96389819D01*
X162013447Y-95342200D02*
X161775352Y-96056485D01*
X161775352Y-96056485D02*
X162394399Y-96056485D01*
X162775352Y-96008866D02*
X163537257Y-96008866D01*
X164537256Y-96389819D02*
X163965828Y-96389819D01*
X164251542Y-96389819D02*
X164251542Y-95389819D01*
X164251542Y-95389819D02*
X164156304Y-95532676D01*
X164156304Y-95532676D02*
X164061066Y-95627914D01*
X164061066Y-95627914D02*
X163965828Y-95675533D01*
X164918209Y-95485057D02*
X164965828Y-95437438D01*
X164965828Y-95437438D02*
X165061066Y-95389819D01*
X165061066Y-95389819D02*
X165299161Y-95389819D01*
X165299161Y-95389819D02*
X165394399Y-95437438D01*
X165394399Y-95437438D02*
X165442018Y-95485057D01*
X165442018Y-95485057D02*
X165489637Y-95580295D01*
X165489637Y-95580295D02*
X165489637Y-95675533D01*
X165489637Y-95675533D02*
X165442018Y-95818390D01*
X165442018Y-95818390D02*
X164870590Y-96389819D01*
X164870590Y-96389819D02*
X165489637Y-96389819D01*
D13*
X155351653Y-102491628D02*
X156351653Y-102491628D01*
X156351653Y-102491628D02*
X155708796Y-103991628D01*
X157565939Y-102991628D02*
X157565939Y-103991628D01*
X157208796Y-102420200D02*
X156851653Y-103491628D01*
X156851653Y-103491628D02*
X157780224Y-103491628D01*
X159065938Y-103991628D02*
X158351652Y-103991628D01*
X158351652Y-103991628D02*
X158351652Y-102491628D01*
X159494510Y-103920200D02*
X159708796Y-103991628D01*
X159708796Y-103991628D02*
X160065938Y-103991628D01*
X160065938Y-103991628D02*
X160208796Y-103920200D01*
X160208796Y-103920200D02*
X160280224Y-103848771D01*
X160280224Y-103848771D02*
X160351653Y-103705914D01*
X160351653Y-103705914D02*
X160351653Y-103563057D01*
X160351653Y-103563057D02*
X160280224Y-103420200D01*
X160280224Y-103420200D02*
X160208796Y-103348771D01*
X160208796Y-103348771D02*
X160065938Y-103277342D01*
X160065938Y-103277342D02*
X159780224Y-103205914D01*
X159780224Y-103205914D02*
X159637367Y-103134485D01*
X159637367Y-103134485D02*
X159565938Y-103063057D01*
X159565938Y-103063057D02*
X159494510Y-102920200D01*
X159494510Y-102920200D02*
X159494510Y-102777342D01*
X159494510Y-102777342D02*
X159565938Y-102634485D01*
X159565938Y-102634485D02*
X159637367Y-102563057D01*
X159637367Y-102563057D02*
X159780224Y-102491628D01*
X159780224Y-102491628D02*
X160137367Y-102491628D01*
X160137367Y-102491628D02*
X160351653Y-102563057D01*
X161780224Y-103991628D02*
X160923081Y-103991628D01*
X161351652Y-103991628D02*
X161351652Y-102491628D01*
X161351652Y-102491628D02*
X161208795Y-102705914D01*
X161208795Y-102705914D02*
X161065938Y-102848771D01*
X161065938Y-102848771D02*
X160923081Y-102920200D01*
X163065938Y-102991628D02*
X163065938Y-103991628D01*
X162708795Y-102420200D02*
X162351652Y-103491628D01*
X162351652Y-103491628D02*
X163280223Y-103491628D01*
X164065937Y-103134485D02*
X163923080Y-103063057D01*
X163923080Y-103063057D02*
X163851651Y-102991628D01*
X163851651Y-102991628D02*
X163780223Y-102848771D01*
X163780223Y-102848771D02*
X163780223Y-102777342D01*
X163780223Y-102777342D02*
X163851651Y-102634485D01*
X163851651Y-102634485D02*
X163923080Y-102563057D01*
X163923080Y-102563057D02*
X164065937Y-102491628D01*
X164065937Y-102491628D02*
X164351651Y-102491628D01*
X164351651Y-102491628D02*
X164494509Y-102563057D01*
X164494509Y-102563057D02*
X164565937Y-102634485D01*
X164565937Y-102634485D02*
X164637366Y-102777342D01*
X164637366Y-102777342D02*
X164637366Y-102848771D01*
X164637366Y-102848771D02*
X164565937Y-102991628D01*
X164565937Y-102991628D02*
X164494509Y-103063057D01*
X164494509Y-103063057D02*
X164351651Y-103134485D01*
X164351651Y-103134485D02*
X164065937Y-103134485D01*
X164065937Y-103134485D02*
X163923080Y-103205914D01*
X163923080Y-103205914D02*
X163851651Y-103277342D01*
X163851651Y-103277342D02*
X163780223Y-103420200D01*
X163780223Y-103420200D02*
X163780223Y-103705914D01*
X163780223Y-103705914D02*
X163851651Y-103848771D01*
X163851651Y-103848771D02*
X163923080Y-103920200D01*
X163923080Y-103920200D02*
X164065937Y-103991628D01*
X164065937Y-103991628D02*
X164351651Y-103991628D01*
X164351651Y-103991628D02*
X164494509Y-103920200D01*
X164494509Y-103920200D02*
X164565937Y-103848771D01*
X164565937Y-103848771D02*
X164637366Y-103705914D01*
X164637366Y-103705914D02*
X164637366Y-103420200D01*
X164637366Y-103420200D02*
X164565937Y-103277342D01*
X164565937Y-103277342D02*
X164494509Y-103205914D01*
X164494509Y-103205914D02*
X164351651Y-103134485D01*
D10*
X128437524Y-108648619D02*
X128675619Y-109648619D01*
X128675619Y-109648619D02*
X128866095Y-108934333D01*
X128866095Y-108934333D02*
X129056571Y-109648619D01*
X129056571Y-109648619D02*
X129294667Y-108648619D01*
X129628000Y-108743857D02*
X129675619Y-108696238D01*
X129675619Y-108696238D02*
X129770857Y-108648619D01*
X129770857Y-108648619D02*
X130008952Y-108648619D01*
X130008952Y-108648619D02*
X130104190Y-108696238D01*
X130104190Y-108696238D02*
X130151809Y-108743857D01*
X130151809Y-108743857D02*
X130199428Y-108839095D01*
X130199428Y-108839095D02*
X130199428Y-108934333D01*
X130199428Y-108934333D02*
X130151809Y-109077190D01*
X130151809Y-109077190D02*
X129580381Y-109648619D01*
X129580381Y-109648619D02*
X130199428Y-109648619D01*
X130532762Y-108648619D02*
X131199428Y-108648619D01*
X131199428Y-108648619D02*
X130770857Y-109648619D01*
X132151809Y-109553380D02*
X132104190Y-109601000D01*
X132104190Y-109601000D02*
X131961333Y-109648619D01*
X131961333Y-109648619D02*
X131866095Y-109648619D01*
X131866095Y-109648619D02*
X131723238Y-109601000D01*
X131723238Y-109601000D02*
X131628000Y-109505761D01*
X131628000Y-109505761D02*
X131580381Y-109410523D01*
X131580381Y-109410523D02*
X131532762Y-109220047D01*
X131532762Y-109220047D02*
X131532762Y-109077190D01*
X131532762Y-109077190D02*
X131580381Y-108886714D01*
X131580381Y-108886714D02*
X131628000Y-108791476D01*
X131628000Y-108791476D02*
X131723238Y-108696238D01*
X131723238Y-108696238D02*
X131866095Y-108648619D01*
X131866095Y-108648619D02*
X131961333Y-108648619D01*
X131961333Y-108648619D02*
X132104190Y-108696238D01*
X132104190Y-108696238D02*
X132151809Y-108743857D01*
X132770857Y-108648619D02*
X132866095Y-108648619D01*
X132866095Y-108648619D02*
X132961333Y-108696238D01*
X132961333Y-108696238D02*
X133008952Y-108743857D01*
X133008952Y-108743857D02*
X133056571Y-108839095D01*
X133056571Y-108839095D02*
X133104190Y-109029571D01*
X133104190Y-109029571D02*
X133104190Y-109267666D01*
X133104190Y-109267666D02*
X133056571Y-109458142D01*
X133056571Y-109458142D02*
X133008952Y-109553380D01*
X133008952Y-109553380D02*
X132961333Y-109601000D01*
X132961333Y-109601000D02*
X132866095Y-109648619D01*
X132866095Y-109648619D02*
X132770857Y-109648619D01*
X132770857Y-109648619D02*
X132675619Y-109601000D01*
X132675619Y-109601000D02*
X132628000Y-109553380D01*
X132628000Y-109553380D02*
X132580381Y-109458142D01*
X132580381Y-109458142D02*
X132532762Y-109267666D01*
X132532762Y-109267666D02*
X132532762Y-109029571D01*
X132532762Y-109029571D02*
X132580381Y-108839095D01*
X132580381Y-108839095D02*
X132628000Y-108743857D01*
X132628000Y-108743857D02*
X132675619Y-108696238D01*
X132675619Y-108696238D02*
X132770857Y-108648619D01*
X133485143Y-108743857D02*
X133532762Y-108696238D01*
X133532762Y-108696238D02*
X133628000Y-108648619D01*
X133628000Y-108648619D02*
X133866095Y-108648619D01*
X133866095Y-108648619D02*
X133961333Y-108696238D01*
X133961333Y-108696238D02*
X134008952Y-108743857D01*
X134008952Y-108743857D02*
X134056571Y-108839095D01*
X134056571Y-108839095D02*
X134056571Y-108934333D01*
X134056571Y-108934333D02*
X134008952Y-109077190D01*
X134008952Y-109077190D02*
X133437524Y-109648619D01*
X133437524Y-109648619D02*
X134056571Y-109648619D01*
X134675619Y-108648619D02*
X134770857Y-108648619D01*
X134770857Y-108648619D02*
X134866095Y-108696238D01*
X134866095Y-108696238D02*
X134913714Y-108743857D01*
X134913714Y-108743857D02*
X134961333Y-108839095D01*
X134961333Y-108839095D02*
X135008952Y-109029571D01*
X135008952Y-109029571D02*
X135008952Y-109267666D01*
X135008952Y-109267666D02*
X134961333Y-109458142D01*
X134961333Y-109458142D02*
X134913714Y-109553380D01*
X134913714Y-109553380D02*
X134866095Y-109601000D01*
X134866095Y-109601000D02*
X134770857Y-109648619D01*
X134770857Y-109648619D02*
X134675619Y-109648619D01*
X134675619Y-109648619D02*
X134580381Y-109601000D01*
X134580381Y-109601000D02*
X134532762Y-109553380D01*
X134532762Y-109553380D02*
X134485143Y-109458142D01*
X134485143Y-109458142D02*
X134437524Y-109267666D01*
X134437524Y-109267666D02*
X134437524Y-109029571D01*
X134437524Y-109029571D02*
X134485143Y-108839095D01*
X134485143Y-108839095D02*
X134532762Y-108743857D01*
X134532762Y-108743857D02*
X134580381Y-108696238D01*
X134580381Y-108696238D02*
X134675619Y-108648619D01*
X136199429Y-109124809D02*
X136532762Y-109124809D01*
X136675619Y-109648619D02*
X136199429Y-109648619D01*
X136199429Y-109648619D02*
X136199429Y-108648619D01*
X136199429Y-108648619D02*
X136675619Y-108648619D01*
X137104191Y-109124809D02*
X137437524Y-109124809D01*
X137580381Y-109648619D02*
X137104191Y-109648619D01*
X137104191Y-109648619D02*
X137104191Y-108648619D01*
X137104191Y-108648619D02*
X137580381Y-108648619D01*
X138008953Y-109648619D02*
X138008953Y-108648619D01*
X138008953Y-108648619D02*
X138389905Y-108648619D01*
X138389905Y-108648619D02*
X138485143Y-108696238D01*
X138485143Y-108696238D02*
X138532762Y-108743857D01*
X138532762Y-108743857D02*
X138580381Y-108839095D01*
X138580381Y-108839095D02*
X138580381Y-108981952D01*
X138580381Y-108981952D02*
X138532762Y-109077190D01*
X138532762Y-109077190D02*
X138485143Y-109124809D01*
X138485143Y-109124809D02*
X138389905Y-109172428D01*
X138389905Y-109172428D02*
X138008953Y-109172428D01*
X139580381Y-109648619D02*
X139247048Y-109172428D01*
X139008953Y-109648619D02*
X139008953Y-108648619D01*
X139008953Y-108648619D02*
X139389905Y-108648619D01*
X139389905Y-108648619D02*
X139485143Y-108696238D01*
X139485143Y-108696238D02*
X139532762Y-108743857D01*
X139532762Y-108743857D02*
X139580381Y-108839095D01*
X139580381Y-108839095D02*
X139580381Y-108981952D01*
X139580381Y-108981952D02*
X139532762Y-109077190D01*
X139532762Y-109077190D02*
X139485143Y-109124809D01*
X139485143Y-109124809D02*
X139389905Y-109172428D01*
X139389905Y-109172428D02*
X139008953Y-109172428D01*
X140199429Y-108648619D02*
X140389905Y-108648619D01*
X140389905Y-108648619D02*
X140485143Y-108696238D01*
X140485143Y-108696238D02*
X140580381Y-108791476D01*
X140580381Y-108791476D02*
X140628000Y-108981952D01*
X140628000Y-108981952D02*
X140628000Y-109315285D01*
X140628000Y-109315285D02*
X140580381Y-109505761D01*
X140580381Y-109505761D02*
X140485143Y-109601000D01*
X140485143Y-109601000D02*
X140389905Y-109648619D01*
X140389905Y-109648619D02*
X140199429Y-109648619D01*
X140199429Y-109648619D02*
X140104191Y-109601000D01*
X140104191Y-109601000D02*
X140008953Y-109505761D01*
X140008953Y-109505761D02*
X139961334Y-109315285D01*
X139961334Y-109315285D02*
X139961334Y-108981952D01*
X139961334Y-108981952D02*
X140008953Y-108791476D01*
X140008953Y-108791476D02*
X140104191Y-108696238D01*
X140104191Y-108696238D02*
X140199429Y-108648619D01*
X141056572Y-109648619D02*
X141056572Y-108648619D01*
X141056572Y-108648619D02*
X141389905Y-109362904D01*
X141389905Y-109362904D02*
X141723238Y-108648619D01*
X141723238Y-108648619D02*
X141723238Y-109648619D01*
D12*
X150258647Y-92566495D02*
X150196743Y-92628400D01*
X150196743Y-92628400D02*
X150011028Y-92690304D01*
X150011028Y-92690304D02*
X149887219Y-92690304D01*
X149887219Y-92690304D02*
X149701505Y-92628400D01*
X149701505Y-92628400D02*
X149577695Y-92504590D01*
X149577695Y-92504590D02*
X149515790Y-92380780D01*
X149515790Y-92380780D02*
X149453886Y-92133161D01*
X149453886Y-92133161D02*
X149453886Y-91947447D01*
X149453886Y-91947447D02*
X149515790Y-91699828D01*
X149515790Y-91699828D02*
X149577695Y-91576019D01*
X149577695Y-91576019D02*
X149701505Y-91452209D01*
X149701505Y-91452209D02*
X149887219Y-91390304D01*
X149887219Y-91390304D02*
X150011028Y-91390304D01*
X150011028Y-91390304D02*
X150196743Y-91452209D01*
X150196743Y-91452209D02*
X150258647Y-91514114D01*
X151249124Y-92009352D02*
X151434838Y-92071257D01*
X151434838Y-92071257D02*
X151496743Y-92133161D01*
X151496743Y-92133161D02*
X151558647Y-92256971D01*
X151558647Y-92256971D02*
X151558647Y-92442685D01*
X151558647Y-92442685D02*
X151496743Y-92566495D01*
X151496743Y-92566495D02*
X151434838Y-92628400D01*
X151434838Y-92628400D02*
X151311028Y-92690304D01*
X151311028Y-92690304D02*
X150815790Y-92690304D01*
X150815790Y-92690304D02*
X150815790Y-91390304D01*
X150815790Y-91390304D02*
X151249124Y-91390304D01*
X151249124Y-91390304D02*
X151372933Y-91452209D01*
X151372933Y-91452209D02*
X151434838Y-91514114D01*
X151434838Y-91514114D02*
X151496743Y-91637923D01*
X151496743Y-91637923D02*
X151496743Y-91761733D01*
X151496743Y-91761733D02*
X151434838Y-91885542D01*
X151434838Y-91885542D02*
X151372933Y-91947447D01*
X151372933Y-91947447D02*
X151249124Y-92009352D01*
X151249124Y-92009352D02*
X150815790Y-92009352D01*
X152115790Y-92690304D02*
X152115790Y-91390304D01*
X152115790Y-91390304D02*
X152549124Y-92318876D01*
X152549124Y-92318876D02*
X152982457Y-91390304D01*
X152982457Y-91390304D02*
X152982457Y-92690304D01*
X153601504Y-92195066D02*
X154591981Y-92195066D01*
X155211028Y-92690304D02*
X155211028Y-91390304D01*
X155830076Y-92690304D02*
X155830076Y-91390304D01*
X158182457Y-92690304D02*
X157749124Y-92071257D01*
X157439600Y-92690304D02*
X157439600Y-91390304D01*
X157439600Y-91390304D02*
X157934838Y-91390304D01*
X157934838Y-91390304D02*
X158058648Y-91452209D01*
X158058648Y-91452209D02*
X158120553Y-91514114D01*
X158120553Y-91514114D02*
X158182457Y-91637923D01*
X158182457Y-91637923D02*
X158182457Y-91823638D01*
X158182457Y-91823638D02*
X158120553Y-91947447D01*
X158120553Y-91947447D02*
X158058648Y-92009352D01*
X158058648Y-92009352D02*
X157934838Y-92071257D01*
X157934838Y-92071257D02*
X157439600Y-92071257D01*
X158987219Y-91390304D02*
X159234838Y-91390304D01*
X159234838Y-91390304D02*
X159358648Y-91452209D01*
X159358648Y-91452209D02*
X159482457Y-91576019D01*
X159482457Y-91576019D02*
X159544362Y-91823638D01*
X159544362Y-91823638D02*
X159544362Y-92256971D01*
X159544362Y-92256971D02*
X159482457Y-92504590D01*
X159482457Y-92504590D02*
X159358648Y-92628400D01*
X159358648Y-92628400D02*
X159234838Y-92690304D01*
X159234838Y-92690304D02*
X158987219Y-92690304D01*
X158987219Y-92690304D02*
X158863410Y-92628400D01*
X158863410Y-92628400D02*
X158739600Y-92504590D01*
X158739600Y-92504590D02*
X158677696Y-92256971D01*
X158677696Y-92256971D02*
X158677696Y-91823638D01*
X158677696Y-91823638D02*
X158739600Y-91576019D01*
X158739600Y-91576019D02*
X158863410Y-91452209D01*
X158863410Y-91452209D02*
X158987219Y-91390304D01*
X160101505Y-92690304D02*
X160101505Y-91390304D01*
X160101505Y-91390304D02*
X160534839Y-92318876D01*
X160534839Y-92318876D02*
X160968172Y-91390304D01*
X160968172Y-91390304D02*
X160968172Y-92690304D01*
X163320552Y-92566495D02*
X163258648Y-92628400D01*
X163258648Y-92628400D02*
X163072933Y-92690304D01*
X163072933Y-92690304D02*
X162949124Y-92690304D01*
X162949124Y-92690304D02*
X162763410Y-92628400D01*
X162763410Y-92628400D02*
X162639600Y-92504590D01*
X162639600Y-92504590D02*
X162577695Y-92380780D01*
X162577695Y-92380780D02*
X162515791Y-92133161D01*
X162515791Y-92133161D02*
X162515791Y-91947447D01*
X162515791Y-91947447D02*
X162577695Y-91699828D01*
X162577695Y-91699828D02*
X162639600Y-91576019D01*
X162639600Y-91576019D02*
X162763410Y-91452209D01*
X162763410Y-91452209D02*
X162949124Y-91390304D01*
X162949124Y-91390304D02*
X163072933Y-91390304D01*
X163072933Y-91390304D02*
X163258648Y-91452209D01*
X163258648Y-91452209D02*
X163320552Y-91514114D01*
X163815791Y-92318876D02*
X164434838Y-92318876D01*
X163691981Y-92690304D02*
X164125314Y-91390304D01*
X164125314Y-91390304D02*
X164558648Y-92690304D01*
X165734838Y-92690304D02*
X165301505Y-92071257D01*
X164991981Y-92690304D02*
X164991981Y-91390304D01*
X164991981Y-91390304D02*
X165487219Y-91390304D01*
X165487219Y-91390304D02*
X165611029Y-91452209D01*
X165611029Y-91452209D02*
X165672934Y-91514114D01*
X165672934Y-91514114D02*
X165734838Y-91637923D01*
X165734838Y-91637923D02*
X165734838Y-91823638D01*
X165734838Y-91823638D02*
X165672934Y-91947447D01*
X165672934Y-91947447D02*
X165611029Y-92009352D01*
X165611029Y-92009352D02*
X165487219Y-92071257D01*
X165487219Y-92071257D02*
X164991981Y-92071257D01*
X166106267Y-91390304D02*
X166849124Y-91390304D01*
X166477696Y-92690304D02*
X166477696Y-91390304D01*
D10*
X175698379Y-108581609D02*
X176031712Y-108581609D01*
X176174569Y-109105419D02*
X175698379Y-109105419D01*
X175698379Y-109105419D02*
X175698379Y-108105419D01*
X175698379Y-108105419D02*
X176174569Y-108105419D01*
X176507903Y-108105419D02*
X177174569Y-109105419D01*
X177174569Y-108105419D02*
X176507903Y-109105419D01*
X177412665Y-108105419D02*
X177984093Y-108105419D01*
X177698379Y-109105419D02*
X177698379Y-108105419D01*
X178317427Y-109010180D02*
X178365046Y-109057800D01*
X178365046Y-109057800D02*
X178317427Y-109105419D01*
X178317427Y-109105419D02*
X178269808Y-109057800D01*
X178269808Y-109057800D02*
X178317427Y-109010180D01*
X178317427Y-109010180D02*
X178317427Y-109105419D01*
X176269807Y-110620180D02*
X176222188Y-110667800D01*
X176222188Y-110667800D02*
X176079331Y-110715419D01*
X176079331Y-110715419D02*
X175984093Y-110715419D01*
X175984093Y-110715419D02*
X175841236Y-110667800D01*
X175841236Y-110667800D02*
X175745998Y-110572561D01*
X175745998Y-110572561D02*
X175698379Y-110477323D01*
X175698379Y-110477323D02*
X175650760Y-110286847D01*
X175650760Y-110286847D02*
X175650760Y-110143990D01*
X175650760Y-110143990D02*
X175698379Y-109953514D01*
X175698379Y-109953514D02*
X175745998Y-109858276D01*
X175745998Y-109858276D02*
X175841236Y-109763038D01*
X175841236Y-109763038D02*
X175984093Y-109715419D01*
X175984093Y-109715419D02*
X176079331Y-109715419D01*
X176079331Y-109715419D02*
X176222188Y-109763038D01*
X176222188Y-109763038D02*
X176269807Y-109810657D01*
X176698379Y-110715419D02*
X176698379Y-109715419D01*
X176698379Y-110191609D02*
X177269807Y-110191609D01*
X177269807Y-110715419D02*
X177269807Y-109715419D01*
X177745998Y-110715419D02*
X177745998Y-109715419D01*
X178222188Y-110715419D02*
X178222188Y-109715419D01*
X178222188Y-109715419D02*
X178603140Y-109715419D01*
X178603140Y-109715419D02*
X178698378Y-109763038D01*
X178698378Y-109763038D02*
X178745997Y-109810657D01*
X178745997Y-109810657D02*
X178793616Y-109905895D01*
X178793616Y-109905895D02*
X178793616Y-110048752D01*
X178793616Y-110048752D02*
X178745997Y-110143990D01*
X178745997Y-110143990D02*
X178698378Y-110191609D01*
X178698378Y-110191609D02*
X178603140Y-110239228D01*
X178603140Y-110239228D02*
X178222188Y-110239228D01*
X179936474Y-110667800D02*
X180079331Y-110715419D01*
X180079331Y-110715419D02*
X180317426Y-110715419D01*
X180317426Y-110715419D02*
X180412664Y-110667800D01*
X180412664Y-110667800D02*
X180460283Y-110620180D01*
X180460283Y-110620180D02*
X180507902Y-110524942D01*
X180507902Y-110524942D02*
X180507902Y-110429704D01*
X180507902Y-110429704D02*
X180460283Y-110334466D01*
X180460283Y-110334466D02*
X180412664Y-110286847D01*
X180412664Y-110286847D02*
X180317426Y-110239228D01*
X180317426Y-110239228D02*
X180126950Y-110191609D01*
X180126950Y-110191609D02*
X180031712Y-110143990D01*
X180031712Y-110143990D02*
X179984093Y-110096371D01*
X179984093Y-110096371D02*
X179936474Y-110001133D01*
X179936474Y-110001133D02*
X179936474Y-109905895D01*
X179936474Y-109905895D02*
X179984093Y-109810657D01*
X179984093Y-109810657D02*
X180031712Y-109763038D01*
X180031712Y-109763038D02*
X180126950Y-109715419D01*
X180126950Y-109715419D02*
X180365045Y-109715419D01*
X180365045Y-109715419D02*
X180507902Y-109763038D01*
X180936474Y-110191609D02*
X181269807Y-110191609D01*
X181412664Y-110715419D02*
X180936474Y-110715419D01*
X180936474Y-110715419D02*
X180936474Y-109715419D01*
X180936474Y-109715419D02*
X181412664Y-109715419D01*
X182317426Y-110715419D02*
X181841236Y-110715419D01*
X181841236Y-110715419D02*
X181841236Y-109715419D01*
X169469600Y-93992532D02*
X169517219Y-93849675D01*
X169517219Y-93849675D02*
X169517219Y-93611580D01*
X169517219Y-93611580D02*
X169469600Y-93516342D01*
X169469600Y-93516342D02*
X169421980Y-93468723D01*
X169421980Y-93468723D02*
X169326742Y-93421104D01*
X169326742Y-93421104D02*
X169231504Y-93421104D01*
X169231504Y-93421104D02*
X169136266Y-93468723D01*
X169136266Y-93468723D02*
X169088647Y-93516342D01*
X169088647Y-93516342D02*
X169041028Y-93611580D01*
X169041028Y-93611580D02*
X168993409Y-93802056D01*
X168993409Y-93802056D02*
X168945790Y-93897294D01*
X168945790Y-93897294D02*
X168898171Y-93944913D01*
X168898171Y-93944913D02*
X168802933Y-93992532D01*
X168802933Y-93992532D02*
X168707695Y-93992532D01*
X168707695Y-93992532D02*
X168612457Y-93944913D01*
X168612457Y-93944913D02*
X168564838Y-93897294D01*
X168564838Y-93897294D02*
X168517219Y-93802056D01*
X168517219Y-93802056D02*
X168517219Y-93563961D01*
X168517219Y-93563961D02*
X168564838Y-93421104D01*
X168517219Y-93087770D02*
X169517219Y-92849675D01*
X169517219Y-92849675D02*
X168802933Y-92659199D01*
X168802933Y-92659199D02*
X169517219Y-92468723D01*
X169517219Y-92468723D02*
X168517219Y-92230628D01*
X169517219Y-91325866D02*
X169517219Y-91897294D01*
X169517219Y-91611580D02*
X168517219Y-91611580D01*
X168517219Y-91611580D02*
X168660076Y-91706818D01*
X168660076Y-91706818D02*
X168755314Y-91802056D01*
X168755314Y-91802056D02*
X168802933Y-91897294D01*
X147762933Y-103534380D02*
X147715314Y-103582000D01*
X147715314Y-103582000D02*
X147572457Y-103629619D01*
X147572457Y-103629619D02*
X147477219Y-103629619D01*
X147477219Y-103629619D02*
X147334362Y-103582000D01*
X147334362Y-103582000D02*
X147239124Y-103486761D01*
X147239124Y-103486761D02*
X147191505Y-103391523D01*
X147191505Y-103391523D02*
X147143886Y-103201047D01*
X147143886Y-103201047D02*
X147143886Y-103058190D01*
X147143886Y-103058190D02*
X147191505Y-102867714D01*
X147191505Y-102867714D02*
X147239124Y-102772476D01*
X147239124Y-102772476D02*
X147334362Y-102677238D01*
X147334362Y-102677238D02*
X147477219Y-102629619D01*
X147477219Y-102629619D02*
X147572457Y-102629619D01*
X147572457Y-102629619D02*
X147715314Y-102677238D01*
X147715314Y-102677238D02*
X147762933Y-102724857D01*
X148143886Y-102724857D02*
X148191505Y-102677238D01*
X148191505Y-102677238D02*
X148286743Y-102629619D01*
X148286743Y-102629619D02*
X148524838Y-102629619D01*
X148524838Y-102629619D02*
X148620076Y-102677238D01*
X148620076Y-102677238D02*
X148667695Y-102724857D01*
X148667695Y-102724857D02*
X148715314Y-102820095D01*
X148715314Y-102820095D02*
X148715314Y-102915333D01*
X148715314Y-102915333D02*
X148667695Y-103058190D01*
X148667695Y-103058190D02*
X148096267Y-103629619D01*
X148096267Y-103629619D02*
X148715314Y-103629619D01*
X171791333Y-111560780D02*
X171743714Y-111608400D01*
X171743714Y-111608400D02*
X171600857Y-111656019D01*
X171600857Y-111656019D02*
X171505619Y-111656019D01*
X171505619Y-111656019D02*
X171362762Y-111608400D01*
X171362762Y-111608400D02*
X171267524Y-111513161D01*
X171267524Y-111513161D02*
X171219905Y-111417923D01*
X171219905Y-111417923D02*
X171172286Y-111227447D01*
X171172286Y-111227447D02*
X171172286Y-111084590D01*
X171172286Y-111084590D02*
X171219905Y-110894114D01*
X171219905Y-110894114D02*
X171267524Y-110798876D01*
X171267524Y-110798876D02*
X171362762Y-110703638D01*
X171362762Y-110703638D02*
X171505619Y-110656019D01*
X171505619Y-110656019D02*
X171600857Y-110656019D01*
X171600857Y-110656019D02*
X171743714Y-110703638D01*
X171743714Y-110703638D02*
X171791333Y-110751257D01*
X172743714Y-111656019D02*
X172172286Y-111656019D01*
X172458000Y-111656019D02*
X172458000Y-110656019D01*
X172458000Y-110656019D02*
X172362762Y-110798876D01*
X172362762Y-110798876D02*
X172267524Y-110894114D01*
X172267524Y-110894114D02*
X172172286Y-110941733D01*
X168046495Y-108573219D02*
X168046495Y-109382742D01*
X168046495Y-109382742D02*
X168094114Y-109477980D01*
X168094114Y-109477980D02*
X168141733Y-109525600D01*
X168141733Y-109525600D02*
X168236971Y-109573219D01*
X168236971Y-109573219D02*
X168427447Y-109573219D01*
X168427447Y-109573219D02*
X168522685Y-109525600D01*
X168522685Y-109525600D02*
X168570304Y-109477980D01*
X168570304Y-109477980D02*
X168617923Y-109382742D01*
X168617923Y-109382742D02*
X168617923Y-108573219D01*
X169617923Y-109573219D02*
X169046495Y-109573219D01*
X169332209Y-109573219D02*
X169332209Y-108573219D01*
X169332209Y-108573219D02*
X169236971Y-108716076D01*
X169236971Y-108716076D02*
X169141733Y-108811314D01*
X169141733Y-108811314D02*
X169046495Y-108858933D01*
X124815695Y-86170419D02*
X124815695Y-86979942D01*
X124815695Y-86979942D02*
X124863314Y-87075180D01*
X124863314Y-87075180D02*
X124910933Y-87122800D01*
X124910933Y-87122800D02*
X125006171Y-87170419D01*
X125006171Y-87170419D02*
X125196647Y-87170419D01*
X125196647Y-87170419D02*
X125291885Y-87122800D01*
X125291885Y-87122800D02*
X125339504Y-87075180D01*
X125339504Y-87075180D02*
X125387123Y-86979942D01*
X125387123Y-86979942D02*
X125387123Y-86170419D01*
X125815695Y-86265657D02*
X125863314Y-86218038D01*
X125863314Y-86218038D02*
X125958552Y-86170419D01*
X125958552Y-86170419D02*
X126196647Y-86170419D01*
X126196647Y-86170419D02*
X126291885Y-86218038D01*
X126291885Y-86218038D02*
X126339504Y-86265657D01*
X126339504Y-86265657D02*
X126387123Y-86360895D01*
X126387123Y-86360895D02*
X126387123Y-86456133D01*
X126387123Y-86456133D02*
X126339504Y-86598990D01*
X126339504Y-86598990D02*
X125768076Y-87170419D01*
X125768076Y-87170419D02*
X126387123Y-87170419D01*
X146019923Y-91640819D02*
X145686590Y-91164628D01*
X145448495Y-91640819D02*
X145448495Y-90640819D01*
X145448495Y-90640819D02*
X145829447Y-90640819D01*
X145829447Y-90640819D02*
X145924685Y-90688438D01*
X145924685Y-90688438D02*
X145972304Y-90736057D01*
X145972304Y-90736057D02*
X146019923Y-90831295D01*
X146019923Y-90831295D02*
X146019923Y-90974152D01*
X146019923Y-90974152D02*
X145972304Y-91069390D01*
X145972304Y-91069390D02*
X145924685Y-91117009D01*
X145924685Y-91117009D02*
X145829447Y-91164628D01*
X145829447Y-91164628D02*
X145448495Y-91164628D01*
X146448495Y-91640819D02*
X146448495Y-90640819D01*
X146448495Y-90640819D02*
X147019923Y-91640819D01*
X147019923Y-91640819D02*
X147019923Y-90640819D01*
X148019923Y-91640819D02*
X147448495Y-91640819D01*
X147734209Y-91640819D02*
X147734209Y-90640819D01*
X147734209Y-90640819D02*
X147638971Y-90783676D01*
X147638971Y-90783676D02*
X147543733Y-90878914D01*
X147543733Y-90878914D02*
X147448495Y-90926533D01*
X177669866Y-105576019D02*
X177669866Y-106290304D01*
X177669866Y-106290304D02*
X177622247Y-106433161D01*
X177622247Y-106433161D02*
X177527009Y-106528400D01*
X177527009Y-106528400D02*
X177384152Y-106576019D01*
X177384152Y-106576019D02*
X177288914Y-106576019D01*
X178669866Y-106576019D02*
X178098438Y-106576019D01*
X178384152Y-106576019D02*
X178384152Y-105576019D01*
X178384152Y-105576019D02*
X178288914Y-105718876D01*
X178288914Y-105718876D02*
X178193676Y-105814114D01*
X178193676Y-105814114D02*
X178098438Y-105861733D01*
D14*
%TO.C,SW1*%
X175562000Y-85929200D02*
X173942000Y-85929200D01*
X170102000Y-85929200D02*
X170102000Y-96849200D01*
X171402000Y-84069200D02*
X171402000Y-85929200D01*
X178102000Y-84069200D02*
X178102000Y-85929200D01*
X178102000Y-85929200D02*
X176482000Y-85929200D01*
X181942000Y-85929200D02*
X181942000Y-96849200D01*
X180642000Y-85929200D02*
X179022000Y-85929200D01*
X175562000Y-84069200D02*
X175562000Y-85929200D01*
X182182000Y-85689200D02*
X182182000Y-87072200D01*
X179022000Y-84069200D02*
X179022000Y-85929200D01*
X180642000Y-84069200D02*
X179022000Y-84069200D01*
X180642000Y-84069200D02*
X180642000Y-85929200D01*
X175562000Y-84069200D02*
X173942000Y-84069200D01*
X181942000Y-96849200D02*
X170102000Y-96849200D01*
X173022000Y-85929200D02*
X171402000Y-85929200D01*
X181942000Y-85929200D02*
X170102000Y-85929200D01*
X178102000Y-84069200D02*
X176482000Y-84069200D01*
X173942000Y-84069200D02*
X173942000Y-85929200D01*
X176482000Y-84069200D02*
X176482000Y-85929200D01*
X173022000Y-84069200D02*
X173022000Y-85929200D01*
X173022000Y-84069200D02*
X171402000Y-84069200D01*
X182182000Y-85689200D02*
X180799000Y-85689200D01*
D15*
%TO.C,P1*%
X153670000Y-113182400D02*
X173482000Y-113182400D01*
X153670000Y-113182400D02*
X153670000Y-111810800D01*
X153670000Y-113182400D02*
X133908800Y-113131600D01*
D14*
%TO.C,C2*%
X149048800Y-98225200D02*
X149048800Y-101865200D01*
X146708800Y-98225200D02*
X146708800Y-101865200D01*
X146953800Y-98225200D02*
X146708800Y-98225200D01*
X146953800Y-101865200D02*
X146708800Y-101865200D01*
X149048800Y-101865200D02*
X148803800Y-101865200D01*
X149048800Y-98225200D02*
X148803800Y-98225200D01*
%TO.C,C1*%
X170737200Y-110004000D02*
X170737200Y-106364000D01*
X173077200Y-110004000D02*
X173077200Y-106364000D01*
X172832200Y-110004000D02*
X173077200Y-110004000D01*
X172832200Y-106364000D02*
X173077200Y-106364000D01*
X170737200Y-106364000D02*
X170982200Y-106364000D01*
X170737200Y-110004000D02*
X170982200Y-110004000D01*
%TO.C,U1*%
X170087600Y-105221600D02*
X170087600Y-103971600D01*
X170087600Y-100721600D02*
X149647600Y-100721600D01*
X149647600Y-105221600D02*
X170087600Y-105221600D01*
X170087600Y-101971600D02*
X170087600Y-100721600D01*
X149647600Y-100721600D02*
X149647600Y-105221600D01*
X170087600Y-101971600D02*
G75*
G03*
X170087600Y-103971600I0J-1000000D01*
G01*
%TO.C,U2*%
X127003000Y-86983600D02*
X126003000Y-87983600D01*
X144253000Y-107783600D02*
X144253000Y-86983600D01*
X144253000Y-86983600D02*
X136128000Y-86983600D01*
X126003000Y-87983600D02*
X126003000Y-107783600D01*
X126003000Y-107783600D02*
X144253000Y-107783600D01*
X134128000Y-86983600D02*
X127003000Y-86983600D01*
%TO.C,RN1*%
X145321200Y-87296800D02*
X145321200Y-90096800D01*
X168521200Y-87296800D02*
X145321200Y-87296800D01*
X145321200Y-90096800D02*
X168521200Y-90096800D01*
X148031200Y-87296800D02*
X148031200Y-90096800D01*
X168521200Y-90096800D02*
X168521200Y-87296800D01*
%TO.C,J1*%
X179264000Y-106781600D02*
X179264000Y-105451600D01*
X179264000Y-108051600D02*
X179264000Y-108111600D01*
X181924000Y-108051600D02*
X181924000Y-108111600D01*
X179264000Y-108111600D02*
X181924000Y-108111600D01*
X179264000Y-108051600D02*
X181924000Y-108051600D01*
X179264000Y-105451600D02*
X180594000Y-105451600D01*
%TD*%
M02*
