%TF.GenerationSoftware,KiCad,Pcbnew,7.0.10*%
%TF.CreationDate,2024-04-12T13:43:35-04:00*%
%TF.ProjectId,cbm2romcart,63626d32-726f-46d6-9361-72742e6b6963,rev?*%
%TF.SameCoordinates,Original*%
%TF.FileFunction,Copper,L2,Bot*%
%TF.FilePolarity,Positive*%
%FSLAX46Y46*%
G04 Gerber Fmt 4.6, Leading zero omitted, Abs format (unit mm)*
G04 Created by KiCad (PCBNEW 7.0.10) date 2024-04-12 13:43:35*
%MOMM*%
%LPD*%
G01*
G04 APERTURE LIST*
%TA.AperFunction,ComponentPad*%
%ADD10R,1.600000X1.600000*%
%TD*%
%TA.AperFunction,ComponentPad*%
%ADD11O,1.600000X1.600000*%
%TD*%
%TA.AperFunction,SMDPad,CuDef*%
%ADD12R,1.524000X8.000000*%
%TD*%
%TA.AperFunction,ComponentPad*%
%ADD13C,1.600000*%
%TD*%
%TA.AperFunction,ComponentPad*%
%ADD14R,1.600000X2.400000*%
%TD*%
%TA.AperFunction,ComponentPad*%
%ADD15O,1.600000X2.400000*%
%TD*%
%TA.AperFunction,ComponentPad*%
%ADD16R,1.422400X1.422400*%
%TD*%
%TA.AperFunction,ComponentPad*%
%ADD17C,1.422400*%
%TD*%
%TA.AperFunction,ComponentPad*%
%ADD18R,1.700000X1.700000*%
%TD*%
%TA.AperFunction,ViaPad*%
%ADD19C,0.600000*%
%TD*%
%TA.AperFunction,Conductor*%
%ADD20C,0.250000*%
%TD*%
%TA.AperFunction,Conductor*%
%ADD21C,0.750000*%
%TD*%
G04 APERTURE END LIST*
D10*
%TO.P,SW1,1*%
%TO.N,GND*%
X179832000Y-87579200D03*
D11*
%TO.P,SW1,2*%
X177292000Y-87579200D03*
%TO.P,SW1,3*%
X174752000Y-87579200D03*
%TO.P,SW1,4*%
X172212000Y-87579200D03*
%TO.P,SW1,5*%
%TO.N,Net-(RN1-R5)*%
X172212000Y-95199200D03*
%TO.P,SW1,6*%
%TO.N,ROMSET2*%
X174752000Y-95199200D03*
%TO.P,SW1,7*%
%TO.N,ROMSET1*%
X177292000Y-95199200D03*
%TO.P,SW1,8*%
%TO.N,ROMSET0*%
X179832000Y-95199200D03*
%TD*%
D12*
%TO.P,P1,30,~{CSBANK3}*%
%TO.N,~{CSBANK3}*%
X171450000Y-117348000D03*
%TO.P,P1,29,~{CSBANK2}*%
%TO.N,~{CSBANK2}*%
X168910000Y-117348000D03*
%TO.P,P1,28,~{CSBANK1}*%
%TO.N,~{CSBANK1}*%
X166370000Y-117348000D03*
%TO.P,P1,27,S02*%
%TO.N,S02*%
X163830000Y-117348000D03*
%TO.P,P1,26,SR/~{W}*%
%TO.N,SR{slash}~{W}*%
X161290000Y-117348000D03*
%TO.P,P1,25,GND*%
%TO.N,GND*%
X158750000Y-117348000D03*
%TO.P,P1,24,GND*%
X156210000Y-117348000D03*
%TO.P,P1,23,D7*%
%TO.N,D7*%
X153670000Y-117348000D03*
%TO.P,P1,22,D6*%
%TO.N,D6*%
X151130000Y-117348000D03*
%TO.P,P1,21,D5*%
%TO.N,D5*%
X148590000Y-117348000D03*
%TO.P,P1,20,D4*%
%TO.N,D4*%
X146050000Y-117348000D03*
%TO.P,P1,19,D3*%
%TO.N,D3*%
X143510000Y-117348000D03*
%TO.P,P1,18,D2*%
%TO.N,D2*%
X140970000Y-117348000D03*
%TO.P,P1,17,D1*%
%TO.N,D1*%
X138430000Y-117348000D03*
%TO.P,P1,16,D0*%
%TO.N,D0*%
X135890000Y-117348000D03*
%TD*%
D13*
%TO.P,C2,1*%
%TO.N,5V*%
X147878800Y-98795200D03*
%TO.P,C2,2*%
%TO.N,GND*%
X147878800Y-101295200D03*
%TD*%
%TO.P,C1,1*%
%TO.N,5V*%
X171907200Y-109434000D03*
%TO.P,C1,2*%
%TO.N,GND*%
X171907200Y-106934000D03*
%TD*%
D14*
%TO.P,U1,1,I4*%
%TO.N,Net-(J1-Pin_1)*%
X168757600Y-99161600D03*
D15*
%TO.P,U1,2,I5*%
%TO.N,~{CSBANK3}*%
X166217600Y-99161600D03*
%TO.P,U1,3,I6*%
%TO.N,~{CSBANK2}*%
X163677600Y-99161600D03*
%TO.P,U1,4,I7*%
%TO.N,~{CSBANK1}*%
X161137600Y-99161600D03*
%TO.P,U1,5,EI*%
%TO.N,Net-(RN1-R5)*%
X158597600Y-99161600D03*
%TO.P,U1,6,S2*%
%TO.N,unconnected-(U1-S2-Pad6)*%
X156057600Y-99161600D03*
%TO.P,U1,7,S1*%
%TO.N,E14*%
X153517600Y-99161600D03*
%TO.P,U1,8,GND*%
%TO.N,GND*%
X150977600Y-99161600D03*
%TO.P,U1,9,S0*%
%TO.N,E13*%
X150977600Y-106781600D03*
%TO.P,U1,10,IO*%
%TO.N,5V*%
X153517600Y-106781600D03*
%TO.P,U1,11,I1*%
X156057600Y-106781600D03*
%TO.P,U1,12,I2*%
X158597600Y-106781600D03*
%TO.P,U1,13,I3*%
X161137600Y-106781600D03*
%TO.P,U1,14,GS*%
%TO.N,~{CS_ROM}*%
X163677600Y-106781600D03*
%TO.P,U1,15,EO*%
%TO.N,unconnected-(U1-EO-Pad15)*%
X166217600Y-106781600D03*
%TO.P,U1,16,VCC*%
%TO.N,5V*%
X168757600Y-106781600D03*
%TD*%
D16*
%TO.P,U2,1,VPP*%
%TO.N,unconnected-(U2-VPP-Pad1)*%
X136398000Y-92303600D03*
D17*
%TO.P,U2,2,A16*%
%TO.N,ROMSET1*%
X133858000Y-89763600D03*
%TO.P,U2,3,A15*%
%TO.N,ROMSET0*%
X133858000Y-92303600D03*
%TO.P,U2,4,A12*%
%TO.N,A12*%
X131318000Y-89763600D03*
%TO.P,U2,5,A7*%
%TO.N,A7*%
X128778000Y-92303600D03*
%TO.P,U2,6,A6*%
%TO.N,A6*%
X131318000Y-92303600D03*
%TO.P,U2,7,A5*%
%TO.N,A5*%
X128778000Y-94843600D03*
%TO.P,U2,8,A4*%
%TO.N,A4*%
X131318000Y-94843600D03*
%TO.P,U2,9,A3*%
%TO.N,A3*%
X128778000Y-97383600D03*
%TO.P,U2,10,A2*%
%TO.N,A2*%
X131318000Y-97383600D03*
%TO.P,U2,11,A1*%
%TO.N,A1*%
X128778000Y-99923600D03*
%TO.P,U2,12,A0*%
%TO.N,A0*%
X131318000Y-99923600D03*
%TO.P,U2,13,D0*%
%TO.N,D0*%
X128778000Y-102463600D03*
%TO.P,U2,14,D1*%
%TO.N,D1*%
X131318000Y-105003600D03*
%TO.P,U2,15,D2*%
%TO.N,D2*%
X131318000Y-102463600D03*
%TO.P,U2,16,GND*%
%TO.N,GND*%
X133858000Y-105003600D03*
%TO.P,U2,17,D3*%
%TO.N,D3*%
X133858000Y-102463600D03*
%TO.P,U2,18,D4*%
%TO.N,D4*%
X136398000Y-105003600D03*
%TO.P,U2,19,D5*%
%TO.N,D5*%
X136398000Y-102463600D03*
%TO.P,U2,20,D6*%
%TO.N,D6*%
X138938000Y-105003600D03*
%TO.P,U2,21,D7*%
%TO.N,D7*%
X141478000Y-102463600D03*
%TO.P,U2,22,~{CE}*%
%TO.N,GND*%
X138938000Y-102463600D03*
%TO.P,U2,23,A10*%
%TO.N,A10*%
X141478000Y-99923600D03*
%TO.P,U2,24,~{OE}*%
%TO.N,~{CS_ROM}*%
X138938000Y-99923600D03*
%TO.P,U2,25,A11*%
%TO.N,A11*%
X141478000Y-97383600D03*
%TO.P,U2,26,A9*%
%TO.N,A9*%
X138938000Y-97383600D03*
%TO.P,U2,27,A8*%
%TO.N,A8*%
X141478000Y-94843600D03*
%TO.P,U2,28,A13*%
%TO.N,E13*%
X138938000Y-94843600D03*
%TO.P,U2,29,A14*%
%TO.N,E14*%
X141478000Y-92303600D03*
%TO.P,U2,30,A17*%
%TO.N,ROMSET2*%
X138938000Y-89763600D03*
%TO.P,U2,31,~{PGM}*%
%TO.N,5V*%
X138938000Y-92303600D03*
%TO.P,U2,32,VCC*%
X136398000Y-89763600D03*
%TD*%
D11*
%TO.P,RN1,9,R8*%
%TO.N,ROMSET0*%
X167081200Y-88696800D03*
%TO.P,RN1,8,R7*%
%TO.N,ROMSET1*%
X164541200Y-88696800D03*
%TO.P,RN1,7,R6*%
%TO.N,ROMSET2*%
X162001200Y-88696800D03*
%TO.P,RN1,6,R5*%
%TO.N,Net-(RN1-R5)*%
X159461200Y-88696800D03*
%TO.P,RN1,5,R4*%
%TO.N,~{CSBANK3}*%
X156921200Y-88696800D03*
%TO.P,RN1,4,R3*%
%TO.N,~{CSBANK2}*%
X154381200Y-88696800D03*
%TO.P,RN1,3,R2*%
%TO.N,~{CSBANK1}*%
X151841200Y-88696800D03*
%TO.P,RN1,2,R1*%
%TO.N,Net-(J1-Pin_1)*%
X149301200Y-88696800D03*
D10*
%TO.P,RN1,1,common*%
%TO.N,5V*%
X146761200Y-88696800D03*
%TD*%
D18*
%TO.P,J1,1,Pin_1*%
%TO.N,Net-(J1-Pin_1)*%
X180594000Y-106781600D03*
%TD*%
D19*
%TO.N,ROMSET2*%
X162915600Y-90881200D03*
%TO.N,A0*%
X135890000Y-111252000D03*
%TO.N,Net-(RN1-R5)*%
X159461200Y-96504600D03*
%TO.N,GND*%
X169570400Y-101650800D03*
%TO.N,Net-(J1-Pin_1)*%
X157226000Y-97129600D03*
%TO.N,~{CS_ROM}*%
X146073000Y-102768400D03*
%TO.N,A10*%
X146034742Y-108270058D03*
%TO.N,D4*%
X138633200Y-107238800D03*
%TO.N,D3*%
X136245600Y-106832400D03*
%TO.N,D5*%
X140258800Y-106324400D03*
%TO.N,A2*%
X127457200Y-99110800D03*
%TO.N,A1*%
X126781400Y-101447600D03*
%TO.N,A8*%
X143271400Y-95385925D03*
%TO.N,A9*%
X144131138Y-96051262D03*
%TO.N,A12*%
X139141200Y-87782400D03*
%TO.N,GND*%
X128371600Y-106781600D03*
%TO.N,A6*%
X133451600Y-94335600D03*
%TO.N,A11*%
X145173000Y-98044000D03*
%TO.N,A5*%
X134264400Y-96113600D03*
%TD*%
D20*
%TO.N,A11*%
X145173000Y-97929000D02*
X144627600Y-97383600D01*
X144627600Y-97383600D02*
X141478000Y-97383600D01*
X145173000Y-98044000D02*
X145173000Y-97929000D01*
%TO.N,~{CS_ROM}*%
X146200000Y-102895400D02*
X146227800Y-102895400D01*
X146073000Y-102768400D02*
X146200000Y-102895400D01*
%TO.N,ROMSET1*%
X143743800Y-88727400D02*
X134894200Y-88727400D01*
X134894200Y-88727400D02*
X133858000Y-89763600D01*
X164084000Y-90119200D02*
X145135600Y-90119200D01*
X164541200Y-88696800D02*
X164541200Y-89662000D01*
X164541200Y-89662000D02*
X164084000Y-90119200D01*
X145135600Y-90119200D02*
X143743800Y-88727400D01*
%TO.N,ROMSET0*%
X167081200Y-89865200D02*
X167081200Y-88696800D01*
X143002000Y-91643200D02*
X165303200Y-91643200D01*
X142626200Y-91267400D02*
X143002000Y-91643200D01*
X134894200Y-91267400D02*
X142626200Y-91267400D01*
X133858000Y-92303600D02*
X134894200Y-91267400D01*
X165303200Y-91643200D02*
X167081200Y-89865200D01*
%TO.N,ROMSET2*%
X143002000Y-89763600D02*
X138938000Y-89763600D01*
X144119600Y-90881200D02*
X143002000Y-89763600D01*
X162915600Y-90881200D02*
X144119600Y-90881200D01*
%TO.N,E14*%
X153517600Y-95300800D02*
X153517600Y-99161600D01*
X150469600Y-92252800D02*
X153517600Y-95300800D01*
X141528800Y-92252800D02*
X150469600Y-92252800D01*
X141478000Y-92303600D02*
X141528800Y-92252800D01*
%TO.N,E13*%
X140258800Y-93522800D02*
X138938000Y-94843600D01*
X149758400Y-92710000D02*
X143306800Y-92710000D01*
X142494000Y-93522800D02*
X140258800Y-93522800D01*
X150977600Y-103225600D02*
X152298400Y-101904800D01*
X152298400Y-101904800D02*
X152298400Y-95250000D01*
X150977600Y-106781600D02*
X150977600Y-103225600D01*
X152298400Y-95250000D02*
X149758400Y-92710000D01*
X143306800Y-92710000D02*
X142494000Y-93522800D01*
%TO.N,ROMSET2*%
X160680400Y-87376000D02*
X154736800Y-87376000D01*
X162001200Y-88696800D02*
X160680400Y-87376000D01*
%TO.N,Net-(RN1-R5)*%
X170942000Y-96469200D02*
X172212000Y-95199200D01*
X159496600Y-96469200D02*
X170942000Y-96469200D01*
X159461200Y-96504600D02*
X159496600Y-96469200D01*
D21*
%TO.N,GND*%
X131368800Y-86614000D02*
X171246800Y-86614000D01*
X125933200Y-92049600D02*
X131368800Y-86614000D01*
X171246800Y-86614000D02*
X172212000Y-87579200D01*
X125933200Y-101058363D02*
X125933200Y-92049600D01*
X125906400Y-101085163D02*
X125933200Y-101058363D01*
X125906400Y-104824400D02*
X125906400Y-101085163D01*
X127863600Y-106781600D02*
X125906400Y-104824400D01*
X128371600Y-106781600D02*
X127863600Y-106781600D01*
X181406800Y-96215200D02*
X181406800Y-89154000D01*
X172161200Y-104292400D02*
X173329600Y-104292400D01*
X181406800Y-89154000D02*
X179832000Y-87579200D01*
X171907200Y-104038400D02*
X172161200Y-104292400D01*
X173329600Y-104292400D02*
X181406800Y-96215200D01*
D20*
%TO.N,A1*%
X128305400Y-99923600D02*
X128778000Y-99923600D01*
X126781400Y-101447600D02*
X128305400Y-99923600D01*
%TO.N,A0*%
X131470400Y-106578400D02*
X135382000Y-110490000D01*
X135890000Y-110998000D02*
X135890000Y-111252000D01*
X135382000Y-110490000D02*
X135890000Y-110998000D01*
X130860800Y-106578400D02*
X131470400Y-106578400D01*
X130048000Y-105765600D02*
X130860800Y-106578400D01*
X130048000Y-101193600D02*
X130048000Y-105765600D01*
%TO.N,D0*%
X128778000Y-105460800D02*
X128778000Y-102463600D01*
X135898200Y-112581000D02*
X128778000Y-105460800D01*
X135898200Y-117504400D02*
X135898200Y-112581000D01*
%TO.N,D1*%
X131318000Y-105054400D02*
X131318000Y-105003600D01*
X138438200Y-112174600D02*
X131318000Y-105054400D01*
X138438200Y-117504400D02*
X138438200Y-112174600D01*
%TO.N,D2*%
X132588000Y-103733600D02*
X131318000Y-102463600D01*
X137668000Y-109220000D02*
X136296400Y-109220000D01*
X140978200Y-112530200D02*
X137668000Y-109220000D01*
X136296400Y-109220000D02*
X132588000Y-105511600D01*
X132588000Y-105511600D02*
X132588000Y-103733600D01*
X140978200Y-117504400D02*
X140978200Y-112530200D01*
%TO.N,A0*%
X130048000Y-101193600D02*
X131318000Y-99923600D01*
%TO.N,Net-(J1-Pin_1)*%
X168757600Y-102565200D02*
X168757600Y-99161600D01*
X171246800Y-108204000D02*
X170281600Y-107238800D01*
X170281600Y-107238800D02*
X170281600Y-104089200D01*
X170281600Y-104089200D02*
X168757600Y-102565200D01*
X174091600Y-108204000D02*
X171246800Y-108204000D01*
X175514000Y-106781600D02*
X174091600Y-108204000D01*
X180594000Y-106781600D02*
X175514000Y-106781600D01*
D21*
%TO.N,GND*%
X171907200Y-104038400D02*
X171907200Y-106934000D01*
X169570400Y-101701600D02*
X171551600Y-103682800D01*
X171551600Y-103682800D02*
X171907200Y-104038400D01*
X169570400Y-101650800D02*
X169570400Y-101701600D01*
X177292000Y-87579200D02*
X179832000Y-87579200D01*
X174752000Y-87579200D02*
X177292000Y-87579200D01*
X172212000Y-87579200D02*
X174752000Y-87579200D01*
D20*
%TO.N,Net-(J1-Pin_1)*%
X168757600Y-97434400D02*
X168757600Y-99161600D01*
X168452800Y-97129600D02*
X168757600Y-97434400D01*
X157226000Y-97129600D02*
X168452800Y-97129600D01*
%TO.N,~{CS_ROM}*%
X146227800Y-102895400D02*
X142036800Y-98704400D01*
D21*
%TO.N,GND*%
X150215600Y-109423200D02*
X152552400Y-109423200D01*
X152552400Y-109423200D02*
X155321000Y-112191800D01*
X147878800Y-101295200D02*
X147878800Y-107086400D01*
X147878800Y-107086400D02*
X150215600Y-109423200D01*
D20*
%TO.N,~{CSBANK3}*%
X171450000Y-113080800D02*
X171450000Y-114258200D01*
X167632600Y-109263400D02*
X171450000Y-113080800D01*
X166217600Y-99161600D02*
X166217600Y-102412800D01*
X166217600Y-102412800D02*
X167632600Y-103827800D01*
X167632600Y-103827800D02*
X167632600Y-109263400D01*
X171450000Y-114258200D02*
X171458200Y-114266400D01*
X171458200Y-114266400D02*
X171458200Y-117504400D01*
%TO.N,~{CSBANK2}*%
X164947600Y-109016800D02*
X168918200Y-112987400D01*
X164947600Y-103784400D02*
X164947600Y-109016800D01*
X163677600Y-102514400D02*
X164947600Y-103784400D01*
X163677600Y-99161600D02*
X163677600Y-102514400D01*
X168918200Y-112987400D02*
X168918200Y-117504400D01*
%TO.N,~{CSBANK1}*%
X161137600Y-102463600D02*
X161137600Y-99161600D01*
X162407600Y-103733600D02*
X161137600Y-102463600D01*
X162407600Y-109016800D02*
X162407600Y-103733600D01*
X166378200Y-112987400D02*
X162407600Y-109016800D01*
X166378200Y-117504400D02*
X166378200Y-112987400D01*
%TO.N,A10*%
X142849600Y-105084916D02*
X146034742Y-108270058D01*
X142849600Y-101904800D02*
X142849600Y-105084916D01*
X141478000Y-100533200D02*
X142849600Y-101904800D01*
X141478000Y-99923600D02*
X141478000Y-100533200D01*
%TO.N,~{CS_ROM}*%
X142036800Y-98704400D02*
X140157200Y-98704400D01*
X140157200Y-98704400D02*
X138938000Y-99923600D01*
%TO.N,A9*%
X144068800Y-96113600D02*
X140208000Y-96113600D01*
X144131138Y-96051262D02*
X144068800Y-96113600D01*
X140208000Y-96113600D02*
X138938000Y-97383600D01*
%TO.N,A8*%
X142698200Y-94843600D02*
X141478000Y-94843600D01*
X143240525Y-95385925D02*
X142698200Y-94843600D01*
X143271400Y-95385925D02*
X143240525Y-95385925D01*
%TO.N,D7*%
X141478000Y-104597200D02*
X141478000Y-102463600D01*
X147116800Y-110236000D02*
X141478000Y-104597200D01*
X150977600Y-110236000D02*
X147116800Y-110236000D01*
X153678200Y-114266400D02*
X153670000Y-114258200D01*
X153670000Y-114258200D02*
X153670000Y-112928400D01*
X153670000Y-112928400D02*
X150977600Y-110236000D01*
X153678200Y-117504400D02*
X153678200Y-114266400D01*
%TO.N,D6*%
X146659600Y-111048800D02*
X140614400Y-105003600D01*
X149301200Y-111048800D02*
X146659600Y-111048800D01*
X140614400Y-105003600D02*
X138938000Y-105003600D01*
X151138200Y-117504400D02*
X151138200Y-112885800D01*
X151138200Y-112885800D02*
X149301200Y-111048800D01*
%TO.N,D5*%
X147599400Y-111785400D02*
X147574000Y-111810800D01*
X147574000Y-111810800D02*
X145745200Y-111810800D01*
X148598200Y-112784200D02*
X147599400Y-111785400D01*
X148598200Y-117504400D02*
X148598200Y-112784200D01*
X145745200Y-111810800D02*
X140258800Y-106324400D01*
%TO.N,D4*%
X140004800Y-107238800D02*
X146058200Y-113292200D01*
X146058200Y-113292200D02*
X146058200Y-117504400D01*
X138633200Y-107238800D02*
X140004800Y-107238800D01*
%TO.N,E14*%
X153517600Y-97688400D02*
X153517600Y-99161600D01*
%TO.N,A12*%
X133299200Y-87782400D02*
X131318000Y-89763600D01*
X139141200Y-87782400D02*
X133299200Y-87782400D01*
%TO.N,D3*%
X139090400Y-108102400D02*
X143518200Y-112530200D01*
X143518200Y-112530200D02*
X143518200Y-117504400D01*
X137515600Y-108102400D02*
X139090400Y-108102400D01*
X136245600Y-106832400D02*
X137515600Y-108102400D01*
%TO.N,A2*%
X130048000Y-98653600D02*
X131318000Y-97383600D01*
X127914400Y-98653600D02*
X130048000Y-98653600D01*
X127457200Y-99110800D02*
X127914400Y-98653600D01*
%TO.N,A5*%
X130048000Y-96113600D02*
X128778000Y-94843600D01*
X134264400Y-96113600D02*
X130048000Y-96113600D01*
D21*
%TO.N,GND*%
X155600400Y-112471200D02*
X155321000Y-112191800D01*
X158038800Y-112471200D02*
X155600400Y-112471200D01*
X158758200Y-113190600D02*
X158038800Y-112471200D01*
X158758200Y-117504400D02*
X158758200Y-113190600D01*
X156218200Y-113089000D02*
X155321000Y-112191800D01*
X156218200Y-117504400D02*
X156218200Y-113089000D01*
D20*
X137668000Y-103733600D02*
X138938000Y-102463600D01*
X135128000Y-103733600D02*
X137668000Y-103733600D01*
X133858000Y-105003600D02*
X135128000Y-103733600D01*
%TO.N,A6*%
X133451600Y-94335600D02*
X133350000Y-94335600D01*
X133350000Y-94335600D02*
X131318000Y-92303600D01*
%TO.N,A0*%
X131419600Y-99923600D02*
X131673600Y-100177600D01*
X131318000Y-99923600D02*
X131419600Y-99923600D01*
%TD*%
M02*
