%TF.GenerationSoftware,KiCad,Pcbnew,9.0.0*%
%TF.CreationDate,2025-05-02T13:48:09-04:00*%
%TF.ProjectId,cbm2rrcart,63626d32-7272-4636-9172-742e6b696361,rev?*%
%TF.SameCoordinates,Original*%
%TF.FileFunction,Copper,L1,Top*%
%TF.FilePolarity,Positive*%
%FSLAX46Y46*%
G04 Gerber Fmt 4.6, Leading zero omitted, Abs format (unit mm)*
G04 Created by KiCad (PCBNEW 9.0.0) date 2025-05-02 13:48:09*
%MOMM*%
%LPD*%
G01*
G04 APERTURE LIST*
%TA.AperFunction,ComponentPad*%
%ADD10R,1.600000X2.400000*%
%TD*%
%TA.AperFunction,ComponentPad*%
%ADD11O,1.600000X2.400000*%
%TD*%
%TA.AperFunction,ComponentPad*%
%ADD12C,1.600000*%
%TD*%
%TA.AperFunction,ComponentPad*%
%ADD13R,1.600000X1.600000*%
%TD*%
%TA.AperFunction,ComponentPad*%
%ADD14O,1.600000X1.600000*%
%TD*%
%TA.AperFunction,ComponentPad*%
%ADD15R,2.400000X1.600000*%
%TD*%
%TA.AperFunction,ComponentPad*%
%ADD16O,2.400000X1.600000*%
%TD*%
%TA.AperFunction,ComponentPad*%
%ADD17R,1.700000X1.700000*%
%TD*%
%TA.AperFunction,ComponentPad*%
%ADD18O,1.700000X1.700000*%
%TD*%
%TA.AperFunction,SMDPad,CuDef*%
%ADD19R,1.524000X8.000000*%
%TD*%
%TA.AperFunction,ViaPad*%
%ADD20C,0.600000*%
%TD*%
%TA.AperFunction,Conductor*%
%ADD21C,0.250000*%
%TD*%
%TA.AperFunction,Conductor*%
%ADD22C,0.750000*%
%TD*%
G04 APERTURE END LIST*
D10*
%TO.P,U1,1,I4*%
%TO.N,~{CS_X1}*%
X177850800Y-93141800D03*
D11*
%TO.P,U1,2,I5*%
%TO.N,~{CSBANK3}*%
X175310800Y-93141800D03*
%TO.P,U1,3,I6*%
%TO.N,~{CSBANK2}*%
X172770800Y-93141800D03*
%TO.P,U1,4,I7*%
%TO.N,~{CSBANK1}*%
X170230800Y-93141800D03*
%TO.P,U1,5,EI*%
%TO.N,ENABLE*%
X167690800Y-93141800D03*
%TO.P,U1,6,S2*%
%TO.N,E15*%
X165150800Y-93141800D03*
%TO.P,U1,7,S1*%
%TO.N,E14*%
X162610800Y-93141800D03*
%TO.P,U1,8,GND*%
%TO.N,GND*%
X160070800Y-93141800D03*
%TO.P,U1,9,S0*%
%TO.N,E13*%
X160070800Y-100761800D03*
%TO.P,U1,10,IO*%
%TO.N,5V*%
X162610800Y-100761800D03*
%TO.P,U1,11,I1*%
X165150800Y-100761800D03*
%TO.P,U1,12,I2*%
X167690800Y-100761800D03*
%TO.P,U1,13,I3*%
%TO.N,~{CS_X2}*%
X170230800Y-100761800D03*
%TO.P,U1,14,GS*%
%TO.N,~{CS_RR}*%
X172770800Y-100761800D03*
%TO.P,U1,15,EO*%
%TO.N,CS_RR*%
X175310800Y-100761800D03*
%TO.P,U1,16,VCC*%
%TO.N,5V*%
X177850800Y-100761800D03*
%TD*%
D12*
%TO.P,C2,1*%
%TO.N,5V*%
X156438600Y-64577600D03*
%TO.P,C2,2*%
%TO.N,GND*%
X156438600Y-67077600D03*
%TD*%
D13*
%TO.P,RN1,1,common*%
%TO.N,5V*%
X177850800Y-88417400D03*
D14*
%TO.P,RN1,2,R1*%
%TO.N,~{CS_X1}*%
X175310800Y-88417400D03*
%TO.P,RN1,3,R2*%
%TO.N,~{CS_X2}*%
X172770800Y-88417400D03*
%TO.P,RN1,4,R3*%
%TO.N,~{CSBANK3}*%
X170230800Y-88417400D03*
%TO.P,RN1,5,R4*%
%TO.N,~{CSBANK2}*%
X167690800Y-88417400D03*
%TO.P,RN1,6,R5*%
%TO.N,~{CSBANK1}*%
X165150800Y-88417400D03*
%TO.P,RN1,7,R6*%
%TO.N,unconnected-(RN1-R6-Pad7)*%
X162610800Y-88417400D03*
%TD*%
D13*
%TO.P,RN2,1,common*%
%TO.N,5V*%
X177774600Y-69316600D03*
D14*
%TO.P,RN2,2,R1*%
%TO.N,ROMSET0*%
X175234600Y-69316600D03*
%TO.P,RN2,3,R2*%
%TO.N,ROMSET1*%
X172694600Y-69316600D03*
%TO.P,RN2,4,R3*%
%TO.N,ROMSET2*%
X170154600Y-69316600D03*
%TO.P,RN2,5,R4*%
%TO.N,PROTECT*%
X167614600Y-69316600D03*
%TO.P,RN2,6,R5*%
%TO.N,SEL_RR*%
X165074600Y-69316600D03*
%TO.P,RN2,7,R6*%
%TO.N,ENABLE*%
X162534600Y-69316600D03*
%TD*%
D15*
%TO.P,U2,1,VPP*%
%TO.N,unconnected-(U2-VPP-Pad1)*%
X138277600Y-64566800D03*
D16*
%TO.P,U2,2,A16*%
%TO.N,ROMSET1*%
X138277600Y-67106800D03*
%TO.P,U2,3,A15*%
%TO.N,ROMSET0*%
X138277600Y-69646800D03*
%TO.P,U2,4,A12*%
%TO.N,A12*%
X138277600Y-72186800D03*
%TO.P,U2,5,A7*%
%TO.N,A7*%
X138277600Y-74726800D03*
%TO.P,U2,6,A6*%
%TO.N,A6*%
X138277600Y-77266800D03*
%TO.P,U2,7,A5*%
%TO.N,A5*%
X138277600Y-79806800D03*
%TO.P,U2,8,A4*%
%TO.N,A4*%
X138277600Y-82346800D03*
%TO.P,U2,9,A3*%
%TO.N,A3*%
X138277600Y-84886800D03*
%TO.P,U2,10,A2*%
%TO.N,A2*%
X138277600Y-87426800D03*
%TO.P,U2,11,A1*%
%TO.N,A1*%
X138277600Y-89966800D03*
%TO.P,U2,12,A0*%
%TO.N,A0*%
X138277600Y-92506800D03*
%TO.P,U2,13,D0*%
%TO.N,D0*%
X138277600Y-95046800D03*
%TO.P,U2,14,D1*%
%TO.N,D1*%
X138277600Y-97586800D03*
%TO.P,U2,15,D2*%
%TO.N,D2*%
X138277600Y-100126800D03*
%TO.P,U2,16,GND*%
%TO.N,GND*%
X138277600Y-102666800D03*
%TO.P,U2,17,D3*%
%TO.N,D3*%
X153517600Y-102666800D03*
%TO.P,U2,18,D4*%
%TO.N,D4*%
X153517600Y-100126800D03*
%TO.P,U2,19,D5*%
%TO.N,D5*%
X153517600Y-97586800D03*
%TO.P,U2,20,D6*%
%TO.N,D6*%
X153517600Y-95046800D03*
%TO.P,U2,21,D7*%
%TO.N,D7*%
X153517600Y-92506800D03*
%TO.P,U2,22,~{CE}*%
%TO.N,SEL_RR*%
X153517600Y-89966800D03*
%TO.P,U2,23,A10*%
%TO.N,A10*%
X153517600Y-87426800D03*
%TO.P,U2,24,~{OE}*%
%TO.N,~{CS_MEM}*%
X153517600Y-84886800D03*
%TO.P,U2,25,A11*%
%TO.N,A11*%
X153517600Y-82346800D03*
%TO.P,U2,26,A9*%
%TO.N,A9*%
X153517600Y-79806800D03*
%TO.P,U2,27,A8*%
%TO.N,A8*%
X153517600Y-77266800D03*
%TO.P,U2,28,A13*%
%TO.N,E13*%
X153517600Y-74726800D03*
%TO.P,U2,29,A14*%
%TO.N,E14*%
X153517600Y-72186800D03*
%TO.P,U2,30,A17*%
%TO.N,ROMSET2*%
X153517600Y-69646800D03*
%TO.P,U2,31,~{PGM}*%
%TO.N,5V*%
X153517600Y-67106800D03*
%TO.P,U2,32,VCC*%
X153517600Y-64566800D03*
%TD*%
D17*
%TO.P,J1,1,Pin_1*%
%TO.N,~{CS_RR}*%
X159131000Y-87401400D03*
D18*
%TO.P,J1,2,Pin_2*%
%TO.N,~{CS_MEM}*%
X159131000Y-84861400D03*
%TO.P,J1,3,Pin_3*%
%TO.N,Net-(J1-Pin_3)*%
X159131000Y-82321400D03*
%TD*%
D12*
%TO.P,C3,1*%
%TO.N,5V*%
X129590800Y-61174000D03*
%TO.P,C3,2*%
%TO.N,GND*%
X127090800Y-61174000D03*
%TD*%
D10*
%TO.P,U4,1*%
%TO.N,CS_RR*%
X177800000Y-75641200D03*
D11*
%TO.P,U4,2*%
%TO.N,S02*%
X175260000Y-75641200D03*
%TO.P,U4,3*%
%TO.N,Net-(J1-Pin_3)*%
X172720000Y-75641200D03*
%TO.P,U4,4*%
%TO.N,5V*%
X170180000Y-75641200D03*
%TO.P,U4,5*%
%TO.N,SR{slash}~{W}*%
X167640000Y-75641200D03*
%TO.P,U4,6*%
%TO.N,Net-(U4-Pad12)*%
X165100000Y-75641200D03*
%TO.P,U4,7,GND*%
%TO.N,GND*%
X162560000Y-75641200D03*
%TO.P,U4,8*%
%TO.N,~{OE_RAM}*%
X162560000Y-83261200D03*
%TO.P,U4,9*%
%TO.N,SR{slash}~{W}*%
X165100000Y-83261200D03*
%TO.P,U4,10*%
%TO.N,S02*%
X167640000Y-83261200D03*
%TO.P,U4,11*%
%TO.N,~{WE_RAM}*%
X170180000Y-83261200D03*
%TO.P,U4,12*%
%TO.N,Net-(U4-Pad12)*%
X172720000Y-83261200D03*
%TO.P,U4,13*%
%TO.N,S02*%
X175260000Y-83261200D03*
%TO.P,U4,14,VCC*%
%TO.N,5V*%
X177800000Y-83261200D03*
%TD*%
D12*
%TO.P,C4,1*%
%TO.N,5V*%
X180670200Y-73166600D03*
%TO.P,C4,2*%
%TO.N,GND*%
X180670200Y-75666600D03*
%TD*%
D13*
%TO.P,U3,1,NC*%
%TO.N,unconnected-(U3-NC-Pad1)*%
X126949200Y-64566800D03*
D14*
%TO.P,U3,2,NC*%
%TO.N,unconnected-(U3-NC-Pad2)*%
X126949200Y-67106800D03*
%TO.P,U3,3,A14*%
%TO.N,E14*%
X126949200Y-69646800D03*
%TO.P,U3,4,A12*%
%TO.N,A12*%
X126949200Y-72186800D03*
%TO.P,U3,5,A7*%
%TO.N,A7*%
X126949200Y-74726800D03*
%TO.P,U3,6,A6*%
%TO.N,A6*%
X126949200Y-77266800D03*
%TO.P,U3,7,A5*%
%TO.N,A5*%
X126949200Y-79806800D03*
%TO.P,U3,8,A4*%
%TO.N,A4*%
X126949200Y-82346800D03*
%TO.P,U3,9,A3*%
%TO.N,A3*%
X126949200Y-84886800D03*
%TO.P,U3,10,A2*%
%TO.N,A2*%
X126949200Y-87426800D03*
%TO.P,U3,11,A1*%
%TO.N,A1*%
X126949200Y-89966800D03*
%TO.P,U3,12,A0*%
%TO.N,A0*%
X126949200Y-92506800D03*
%TO.P,U3,13,D0*%
%TO.N,D0*%
X126949200Y-95046800D03*
%TO.P,U3,14,D1*%
%TO.N,D1*%
X126949200Y-97586800D03*
%TO.P,U3,15,D2*%
%TO.N,D2*%
X126949200Y-100126800D03*
%TO.P,U3,16,GND*%
%TO.N,GND*%
X126949200Y-102666800D03*
%TO.P,U3,17,D3*%
%TO.N,D3*%
X134569200Y-102666800D03*
%TO.P,U3,18,D4*%
%TO.N,D4*%
X134569200Y-100126800D03*
%TO.P,U3,19,D5*%
%TO.N,D5*%
X134569200Y-97586800D03*
%TO.P,U3,20,D6*%
%TO.N,D6*%
X134569200Y-95046800D03*
%TO.P,U3,21,D7*%
%TO.N,D7*%
X134569200Y-92506800D03*
%TO.P,U3,22,~{CE1}*%
%TO.N,~{CS_MEM}*%
X134569200Y-89966800D03*
%TO.P,U3,23,A10*%
%TO.N,A10*%
X134569200Y-87426800D03*
%TO.P,U3,24,~{OE}*%
%TO.N,~{OE_RAM}*%
X134569200Y-84886800D03*
%TO.P,U3,25,A11*%
%TO.N,A11*%
X134569200Y-82346800D03*
%TO.P,U3,26,A9*%
%TO.N,A9*%
X134569200Y-79806800D03*
%TO.P,U3,27,A8*%
%TO.N,A8*%
X134569200Y-77266800D03*
%TO.P,U3,28,A13*%
%TO.N,E13*%
X134569200Y-74726800D03*
%TO.P,U3,29,~{WE}*%
%TO.N,PROTECT*%
X134569200Y-72186800D03*
%TO.P,U3,30,CE2*%
%TO.N,SEL_RR*%
X134569200Y-69646800D03*
%TO.P,U3,31,A15*%
%TO.N,E15*%
X134569200Y-67106800D03*
%TO.P,U3,32,VCC*%
%TO.N,5V*%
X134569200Y-64566800D03*
%TD*%
D13*
%TO.P,SW1,1*%
%TO.N,GND*%
X175234601Y-56870600D03*
D14*
%TO.P,SW1,2*%
X172694601Y-56870600D03*
%TO.P,SW1,3*%
X170154601Y-56870600D03*
%TO.P,SW1,4*%
%TO.N,~{WE_RAM}*%
X167614601Y-56870600D03*
%TO.P,SW1,5*%
%TO.N,GND*%
X165074601Y-56870600D03*
%TO.P,SW1,6*%
X162534601Y-56870600D03*
%TO.P,SW1,7*%
%TO.N,ENABLE*%
X162534601Y-64490600D03*
%TO.P,SW1,8*%
%TO.N,SEL_RR*%
X165074601Y-64490600D03*
%TO.P,SW1,9*%
%TO.N,PROTECT*%
X167614601Y-64490600D03*
%TO.P,SW1,10*%
%TO.N,ROMSET2*%
X170154601Y-64490600D03*
%TO.P,SW1,11*%
%TO.N,ROMSET1*%
X172694601Y-64490600D03*
%TO.P,SW1,12*%
%TO.N,ROMSET0*%
X175234601Y-64490600D03*
%TD*%
D17*
%TO.P,J2,1,Pin_1*%
%TO.N,~{CS_X2}*%
X179654200Y-105824100D03*
D18*
%TO.P,J2,2,Pin_2*%
%TO.N,~{CS_X1}*%
X179654200Y-108364100D03*
%TD*%
D19*
%TO.P,P1,1,A0*%
%TO.N,A0*%
X135890000Y-117348000D03*
%TO.P,P1,2,A1*%
%TO.N,A1*%
X138430000Y-117348000D03*
%TO.P,P1,3,A2*%
%TO.N,A2*%
X140970000Y-117348000D03*
%TO.P,P1,4,A3*%
%TO.N,A3*%
X143510000Y-117348000D03*
%TO.P,P1,5,A4*%
%TO.N,A4*%
X146050000Y-117348000D03*
%TO.P,P1,6,A5*%
%TO.N,A5*%
X148590000Y-117348000D03*
%TO.P,P1,7,A6*%
%TO.N,A6*%
X151130000Y-117348000D03*
%TO.P,P1,8,A7*%
%TO.N,A7*%
X153670000Y-117348000D03*
%TO.P,P1,9,A8*%
%TO.N,A8*%
X156210000Y-117348000D03*
%TO.P,P1,10,A9*%
%TO.N,A9*%
X158750000Y-117348000D03*
%TO.P,P1,11,A10*%
%TO.N,A10*%
X161290000Y-117348000D03*
%TO.P,P1,12,A11*%
%TO.N,A11*%
X163830000Y-117348000D03*
%TO.P,P1,13,A12*%
%TO.N,A12*%
X166370000Y-117348000D03*
%TO.P,P1,14,+5V*%
%TO.N,5V*%
X168910000Y-117348000D03*
%TO.P,P1,15,+5V*%
X171450000Y-117348000D03*
%TD*%
D20*
%TO.N,A8*%
X143992600Y-75971400D03*
%TO.N,A9*%
X149809200Y-78536800D03*
%TO.N,A10*%
X150454200Y-87426800D03*
%TO.N,A11*%
X151013000Y-82346800D03*
%TO.N,A12*%
X150977600Y-73152000D03*
%TO.N,5V*%
X154990800Y-105714800D03*
X138303000Y-105714800D03*
%TO.N,D0*%
X144780000Y-95046800D03*
X144834089Y-108051600D03*
%TO.N,D1*%
X145459089Y-108680817D03*
X145440400Y-98196400D03*
%TO.N,D2*%
X146050000Y-109220000D03*
X146084089Y-100126800D03*
%TO.N,D3*%
X146672567Y-109798638D03*
X146862800Y-101346000D03*
%TO.N,D4*%
X147472400Y-100126800D03*
X147193843Y-110405495D03*
%TO.N,D5*%
X148545400Y-97586800D03*
X148590000Y-110439200D03*
%TO.N,D6*%
X151180800Y-110438200D03*
X148995400Y-94996000D03*
%TO.N,D7*%
X153670000Y-110337600D03*
X149445400Y-92456000D03*
%TO.N,GND*%
X156032200Y-76301600D03*
X181102000Y-96088200D03*
X155651200Y-104648000D03*
X181102000Y-103174800D03*
%TO.N,CS_RR*%
X176225200Y-95213200D03*
%TO.N,PROTECT*%
X143332200Y-77012800D03*
%TO.N,SEL_RR*%
X147726400Y-89966800D03*
X141770100Y-71539100D03*
%TO.N,E15*%
X151053800Y-69977000D03*
%TO.N,~{CS_RR}*%
X156692600Y-90779600D03*
X172491400Y-103276400D03*
%TO.N,~{CS_MEM}*%
X149021800Y-84886800D03*
X146405600Y-87503000D03*
%TO.N,Net-(U4-Pad12)*%
X170053000Y-78155800D03*
%TO.N,~{CS_X2}*%
X179654200Y-102299800D03*
%TO.N,Net-(J1-Pin_3)*%
X164617400Y-79857600D03*
%TD*%
D21*
%TO.N,A0*%
X135898200Y-117504400D02*
X135898200Y-113021800D01*
X139776200Y-92506800D02*
X138277600Y-92506800D01*
X140411200Y-93141800D02*
X139776200Y-92506800D01*
X135898200Y-113021800D02*
X140411200Y-108508800D01*
X140411200Y-108508800D02*
X140411200Y-93141800D01*
%TO.N,A1*%
X140861200Y-110573400D02*
X140861200Y-90975600D01*
X138438200Y-117504400D02*
X138438200Y-112996400D01*
X139852400Y-89966800D02*
X138277600Y-89966800D01*
X138438200Y-112996400D02*
X140861200Y-110573400D01*
X140861200Y-90975600D02*
X139852400Y-89966800D01*
%TO.N,A2*%
X140978200Y-117504400D02*
X140978200Y-113072600D01*
X141311200Y-112739600D02*
X141311200Y-88834800D01*
X139903200Y-87426800D02*
X138277600Y-87426800D01*
X141311200Y-88834800D02*
X139903200Y-87426800D01*
X140978200Y-113072600D02*
X141311200Y-112739600D01*
%TO.N,A3*%
X141761200Y-111205000D02*
X141761200Y-86694000D01*
X143518200Y-117504400D02*
X143518200Y-112962000D01*
X139954000Y-84886800D02*
X138277600Y-84886800D01*
X143518200Y-112962000D02*
X141761200Y-111205000D01*
X141761200Y-86694000D02*
X139954000Y-84886800D01*
%TO.N,A4*%
X146058200Y-117504400D02*
X146058200Y-112709396D01*
X139877800Y-82346800D02*
X138277600Y-82346800D01*
X146058200Y-112709396D02*
X142211200Y-108862396D01*
X142211200Y-108862396D02*
X142211200Y-84680200D01*
X142211200Y-84680200D02*
X139877800Y-82346800D01*
%TO.N,A5*%
X148598200Y-117504400D02*
X148598200Y-112936600D01*
X148132800Y-112471200D02*
X146456400Y-112471200D01*
X148598200Y-112936600D02*
X148132800Y-112471200D01*
X142661200Y-82590200D02*
X139877800Y-79806800D01*
X146456400Y-112471200D02*
X142661200Y-108676000D01*
X142661200Y-108676000D02*
X142661200Y-82590200D01*
X139877800Y-79806800D02*
X138277600Y-79806800D01*
%TO.N,A6*%
X143111200Y-80271600D02*
X140106400Y-77266800D01*
X151138200Y-117504400D02*
X151138200Y-112784200D01*
X151138200Y-112784200D02*
X150317200Y-111963200D01*
X150317200Y-111963200D02*
X146584796Y-111963200D01*
X143111200Y-108489604D02*
X143111200Y-80271600D01*
X146584796Y-111963200D02*
X143111200Y-108489604D01*
X140106400Y-77266800D02*
X138277600Y-77266800D01*
%TO.N,A7*%
X143561200Y-108303208D02*
X143561200Y-78461000D01*
X153670000Y-112953800D02*
X152229400Y-111513200D01*
X139827000Y-74726800D02*
X138277600Y-74726800D01*
X152229400Y-111513200D02*
X146771192Y-111513200D01*
X153670000Y-117348000D02*
X153670000Y-112953800D01*
X143561200Y-78461000D02*
X139827000Y-74726800D01*
X146771192Y-111513200D02*
X143561200Y-108303208D01*
X153678200Y-117504400D02*
X153678200Y-113519404D01*
%TO.N,A8*%
X156218200Y-112987400D02*
X156218200Y-117504400D01*
X146957588Y-111063200D02*
X154294000Y-111063200D01*
X143992600Y-75971400D02*
X144011200Y-75990000D01*
X144011200Y-75990000D02*
X144011200Y-108116812D01*
X154294000Y-111063200D02*
X156218200Y-112987400D01*
X144011200Y-108116812D02*
X146957588Y-111063200D01*
%TO.N,A9*%
X158758200Y-113038200D02*
X158758200Y-117504400D01*
X156286200Y-110494188D02*
X156286200Y-110566200D01*
X149809200Y-78536800D02*
X149809200Y-91211400D01*
X149809200Y-91211400D02*
X150070400Y-91472600D01*
X153532063Y-107764800D02*
X153556812Y-107764800D01*
X153556812Y-107764800D02*
X156286200Y-110494188D01*
X150070400Y-91472600D02*
X150070400Y-104303137D01*
X156286200Y-110566200D02*
X158758200Y-113038200D01*
X150070400Y-104303137D02*
X153532063Y-107764800D01*
%TO.N,A10*%
X150454200Y-87426800D02*
X150520400Y-87493000D01*
X150520400Y-104116741D02*
X153718459Y-107314800D01*
X158376200Y-110116200D02*
X161298200Y-113038200D01*
X153743208Y-107314800D02*
X156544608Y-110116200D01*
X153718459Y-107314800D02*
X153743208Y-107314800D01*
X150520400Y-87493000D02*
X150520400Y-104116741D01*
X161298200Y-113038200D02*
X161298200Y-117504400D01*
X156544608Y-110116200D02*
X158376200Y-110116200D01*
%TO.N,A11*%
X156640404Y-109575600D02*
X160299400Y-109575600D01*
X151079200Y-104039145D02*
X153904855Y-106864800D01*
X160299400Y-109575600D02*
X163838200Y-113114400D01*
X151013000Y-82346800D02*
X151079200Y-82413000D01*
X151079200Y-82413000D02*
X151079200Y-104039145D01*
X163838200Y-113114400D02*
X163838200Y-117504400D01*
X153904855Y-106864800D02*
X153929604Y-106864800D01*
X153929604Y-106864800D02*
X156640404Y-109575600D01*
%TO.N,A12*%
X151434800Y-73583800D02*
X151638000Y-73787000D01*
X166378200Y-113114400D02*
X162331400Y-109067600D01*
X166378200Y-117504400D02*
X166378200Y-113114400D01*
X154091251Y-106414800D02*
X151638000Y-103961549D01*
X162331400Y-109067600D02*
X156768800Y-109067600D01*
X156768800Y-109067600D02*
X154116000Y-106414800D01*
X150977600Y-73152000D02*
X151409400Y-73583800D01*
X151409400Y-73583800D02*
X151434800Y-73583800D01*
X154116000Y-106414800D02*
X154091251Y-106414800D01*
X151638000Y-73787000D02*
X151638000Y-76657200D01*
X151638000Y-103961549D02*
X151638000Y-76657200D01*
X151638000Y-76657200D02*
X151638000Y-76301600D01*
D22*
%TO.N,5V*%
X128092200Y-58623200D02*
X132562600Y-54152800D01*
X180695599Y-100711001D02*
X177901599Y-100711001D01*
X171424600Y-111125000D02*
X169011600Y-111125000D01*
X182245000Y-83286600D02*
X182219600Y-83261200D01*
X182219600Y-69316600D02*
X177774600Y-69316600D01*
X132562600Y-54152800D02*
X156489400Y-54152800D01*
X177850800Y-100761800D02*
X177850800Y-98679002D01*
X182230400Y-73166600D02*
X180670200Y-73166600D01*
X182245000Y-100711000D02*
X180695599Y-100711001D01*
X125222000Y-60706000D02*
X127304800Y-58623200D01*
X170180000Y-74015600D02*
X170180000Y-75641200D01*
X182219600Y-83261200D02*
X177800000Y-83261200D01*
X167690800Y-100761800D02*
X165150800Y-100761800D01*
X182245000Y-100711000D02*
X182245000Y-109804200D01*
X163601400Y-105714800D02*
X168960800Y-111074200D01*
X182245000Y-109804200D02*
X180924200Y-111125000D01*
X172770800Y-111125000D02*
X171424600Y-111125000D01*
X127304800Y-58623200D02*
X128092200Y-58623200D01*
X168960800Y-111074200D02*
X168960800Y-117461800D01*
X182245000Y-88468200D02*
X182245000Y-100711000D01*
X167690800Y-98755200D02*
X167690800Y-100761800D01*
X168743599Y-97702401D02*
X167690800Y-98755200D01*
X177901599Y-100711001D02*
X177850800Y-100761800D01*
X156489400Y-54152800D02*
X161696400Y-54152800D01*
D21*
X168918200Y-112818600D02*
X168960800Y-112776000D01*
D22*
X171450000Y-111150400D02*
X171450000Y-117348000D01*
X138303000Y-105714800D02*
X127177800Y-105714800D01*
X165150800Y-100761800D02*
X162610800Y-100761800D01*
X182245000Y-69291200D02*
X182219600Y-69316600D01*
X127177800Y-105714800D02*
X125222000Y-103759000D01*
X154990800Y-105714800D02*
X163601400Y-105714800D01*
X182245000Y-83286600D02*
X182245000Y-85598000D01*
X161696400Y-54152800D02*
X175234600Y-54152800D01*
X156438600Y-64577600D02*
X156438600Y-54203600D01*
X182245000Y-61163200D02*
X182245000Y-69291200D01*
X156438600Y-54203600D02*
X156489400Y-54152800D01*
X171424600Y-111125000D02*
X171450000Y-111150400D01*
X182245000Y-69291200D02*
X182245000Y-73152000D01*
X182245000Y-85598000D02*
X182245000Y-88468200D01*
X169011600Y-111125000D02*
X168960800Y-111074200D01*
X175234600Y-54152800D02*
X182245000Y-61163200D01*
D21*
X168918200Y-117504400D02*
X168918200Y-112818600D01*
D22*
X182245000Y-88468200D02*
X182194200Y-88417400D01*
X171029000Y-73166600D02*
X170180000Y-74015600D01*
X176874199Y-97702401D02*
X168743599Y-97702401D01*
X182194200Y-88417400D02*
X177850800Y-88417400D01*
X168960800Y-117461800D02*
X168918200Y-117504400D01*
X125222000Y-103759000D02*
X125222000Y-60706000D01*
X180924200Y-111125000D02*
X172770800Y-111125000D01*
X177850800Y-98679002D02*
X176874199Y-97702401D01*
X182245000Y-73152000D02*
X182245000Y-83286600D01*
X182245000Y-73152000D02*
X182230400Y-73166600D01*
X180670200Y-73166600D02*
X171029000Y-73166600D01*
D21*
%TO.N,D0*%
X144834089Y-108051600D02*
X144834089Y-98656889D01*
X144815400Y-95082200D02*
X144780000Y-95046800D01*
X144815400Y-98638200D02*
X144815400Y-95082200D01*
X127914400Y-95046800D02*
X126949200Y-95046800D01*
X144834089Y-98656889D02*
X144830800Y-98653600D01*
X144830800Y-98653600D02*
X144815400Y-98638200D01*
%TO.N,D1*%
X145459089Y-98215089D02*
X145459089Y-108680817D01*
X145440400Y-98196400D02*
X145459089Y-98215089D01*
%TO.N,D2*%
X146151600Y-100194311D02*
X146151600Y-106476800D01*
X146151600Y-109118400D02*
X146050000Y-109220000D01*
X146084089Y-100126800D02*
X146151600Y-100194311D01*
X146151600Y-106730800D02*
X146151600Y-106476800D01*
X146151600Y-106476800D02*
X146151600Y-109118400D01*
%TO.N,D3*%
X146862800Y-109608405D02*
X146672567Y-109798638D01*
X146862800Y-101346000D02*
X146862800Y-109608405D01*
%TO.N,D4*%
X147472400Y-101620284D02*
X147472400Y-109402916D01*
X147487800Y-110111538D02*
X147193843Y-110405495D01*
X147487800Y-101604884D02*
X147472400Y-101620284D01*
X147472400Y-109402916D02*
X147487800Y-109418316D01*
X147487800Y-100517800D02*
X147487800Y-101604884D01*
X147472400Y-100502400D02*
X147487800Y-100517800D01*
X147472400Y-100126800D02*
X147472400Y-100502400D01*
X147487800Y-109418316D02*
X147487800Y-110111538D01*
%TO.N,D5*%
X148590000Y-99466400D02*
X148545400Y-99421800D01*
X148545400Y-99421800D02*
X148545400Y-97586800D01*
X148590000Y-110439200D02*
X148590000Y-99466400D01*
%TO.N,D6*%
X149170400Y-96694000D02*
X148995400Y-96519000D01*
X151180800Y-110438200D02*
X149170400Y-108427800D01*
X148995400Y-96519000D02*
X148995400Y-94996000D01*
X149170400Y-108427800D02*
X149170400Y-96694000D01*
%TO.N,D7*%
X149620400Y-106313400D02*
X149620400Y-94066969D01*
X149620400Y-94066969D02*
X149445400Y-93891969D01*
X153644600Y-110337600D02*
X149620400Y-106313400D01*
X153670000Y-110337600D02*
X153644600Y-110337600D01*
X149445400Y-93891969D02*
X149445400Y-92456000D01*
D22*
%TO.N,GND*%
X155651200Y-102285800D02*
X155651200Y-104648000D01*
X160070800Y-93141800D02*
X160070800Y-94691202D01*
X177342800Y-104648000D02*
X178282600Y-103708200D01*
X161467798Y-96088200D02*
X178572798Y-96088200D01*
X180644800Y-75641200D02*
X180670200Y-75666600D01*
X156032200Y-76301600D02*
X155651200Y-76682600D01*
X155651200Y-104648000D02*
X177342800Y-104648000D01*
X155651200Y-102387400D02*
X155600400Y-102336600D01*
X180568600Y-103708200D02*
X181102000Y-103174800D01*
X178572798Y-96088200D02*
X181102000Y-96088200D01*
X155651200Y-76682600D02*
X155651200Y-102285800D01*
X178282600Y-103708200D02*
X180568600Y-103708200D01*
X155600400Y-102336600D02*
X155651200Y-102285800D01*
X160070800Y-94691202D02*
X161467798Y-96088200D01*
D21*
%TO.N,S02*%
X175260000Y-75641200D02*
X175260000Y-83261200D01*
%TO.N,ROMSET0*%
X159512000Y-66827400D02*
X173990000Y-66827400D01*
X140004800Y-69646800D02*
X141274800Y-68376800D01*
X175234600Y-68072000D02*
X175234600Y-69316600D01*
X138277600Y-69646800D02*
X140004800Y-69646800D01*
X157962600Y-68376800D02*
X159512000Y-66827400D01*
X141274800Y-68376800D02*
X157962600Y-68376800D01*
X173990000Y-66827400D02*
X175234600Y-68072000D01*
%TO.N,ROMSET1*%
X172542200Y-65836800D02*
X172694601Y-65684399D01*
X138277600Y-67106800D02*
X140106400Y-67106800D01*
X141376400Y-65836800D02*
X172542200Y-65836800D01*
X172694601Y-65684399D02*
X172694601Y-64490600D01*
X140106400Y-67106800D02*
X141376400Y-65836800D01*
%TO.N,CS_RR*%
X176580800Y-79527400D02*
X177800000Y-78308200D01*
X176580800Y-94857600D02*
X176580800Y-79527400D01*
X176225200Y-95213200D02*
X176580800Y-94857600D01*
X177800000Y-78308200D02*
X177800000Y-75641200D01*
%TO.N,E14*%
X155067000Y-72186800D02*
X153517600Y-72186800D01*
X162610800Y-93141800D02*
X162610800Y-91668600D01*
X162610800Y-91668600D02*
X161899601Y-90957401D01*
X159105601Y-90957401D02*
X157218800Y-89070600D01*
X161899601Y-90957401D02*
X159105601Y-90957401D01*
X157218800Y-89070600D02*
X157218800Y-74338600D01*
X157218800Y-74338600D02*
X155067000Y-72186800D01*
%TO.N,E13*%
X160070800Y-100761800D02*
X157317600Y-98008600D01*
X156768800Y-89971916D02*
X156768800Y-75260200D01*
X156768800Y-75260200D02*
X156235400Y-74726800D01*
X156235400Y-74726800D02*
X153517600Y-74726800D01*
X157317600Y-98008600D02*
X157317600Y-90520716D01*
X157317600Y-90520716D02*
X156768800Y-89971916D01*
%TO.N,ROMSET2*%
X157454600Y-69646800D02*
X159664400Y-67437000D01*
X153517600Y-69646800D02*
X157454600Y-69646800D01*
X169265600Y-67437000D02*
X170154600Y-68326000D01*
X170154600Y-68326000D02*
X170154600Y-69316600D01*
X153517600Y-69646800D02*
X152425400Y-69646800D01*
X159664400Y-67437000D02*
X169265600Y-67437000D01*
%TO.N,PROTECT*%
X139471400Y-73482200D02*
X143002000Y-77012800D01*
X135737600Y-72186800D02*
X137033000Y-73482200D01*
X134569200Y-72186800D02*
X135737600Y-72186800D01*
X137033000Y-73482200D02*
X139471400Y-73482200D01*
X143002000Y-77012800D02*
X143332200Y-77012800D01*
%TO.N,SEL_RR*%
X141173200Y-70942200D02*
X137033000Y-70942200D01*
X137033000Y-70942200D02*
X135737600Y-69646800D01*
X144653000Y-74422000D02*
X141770100Y-71539100D01*
X147726400Y-89966800D02*
X144653000Y-86893400D01*
X135737600Y-69646800D02*
X134569200Y-69646800D01*
X144653000Y-86893400D02*
X144653000Y-74422000D01*
X141770100Y-71539100D02*
X141173200Y-70942200D01*
%TO.N,ENABLE*%
X161163000Y-89255600D02*
X161163000Y-70688200D01*
X166130401Y-90057401D02*
X161964801Y-90057401D01*
X161163000Y-70688200D02*
X162534600Y-69316600D01*
X167690800Y-91617800D02*
X166130401Y-90057401D01*
X167690800Y-93141800D02*
X167690800Y-91617800D01*
X161964801Y-90057401D02*
X161163000Y-89255600D01*
%TO.N,E15*%
X164040401Y-90507401D02*
X165150800Y-91617800D01*
X154407996Y-70891400D02*
X157668800Y-74152204D01*
X151968200Y-70891400D02*
X154407996Y-70891400D01*
X151053800Y-69977000D02*
X151968200Y-70891400D01*
X159291997Y-90507401D02*
X164040401Y-90507401D01*
X157668800Y-88884204D02*
X159291997Y-90507401D01*
X165150800Y-93141800D02*
X164770448Y-93141800D01*
X157668800Y-74152204D02*
X157668800Y-88884204D01*
X165150800Y-91617800D02*
X165150800Y-93141800D01*
%TO.N,~{CS_RR}*%
X160248598Y-103581200D02*
X157962599Y-101295201D01*
X172491400Y-103276400D02*
X172186600Y-103581200D01*
X156692600Y-100025202D02*
X157962599Y-101295201D01*
X157480000Y-100812602D02*
X157962599Y-101295201D01*
X156692600Y-90779600D02*
X156692600Y-100025202D01*
X172186600Y-103581200D02*
X160248598Y-103581200D01*
%TO.N,~{CS_MEM}*%
X146405600Y-87503000D02*
X149021800Y-84886800D01*
%TO.N,Net-(U4-Pad12)*%
X168452800Y-78130400D02*
X170027600Y-78130400D01*
X168452800Y-78130400D02*
X169113200Y-78130400D01*
X165100000Y-75641200D02*
X165100000Y-77292200D01*
X172720000Y-81737200D02*
X172720000Y-83261200D01*
X165100000Y-77292200D02*
X165938200Y-78130400D01*
X170027600Y-78130400D02*
X170053000Y-78155800D01*
X165938200Y-78130400D02*
X168452800Y-78130400D01*
%TO.N,~{CS_X2}*%
X178333400Y-102387400D02*
X179654200Y-102387400D01*
X170230800Y-100761800D02*
X170307000Y-100838000D01*
X178130200Y-102590600D02*
X178333400Y-102387400D01*
X179654200Y-102387400D02*
X179654200Y-102299800D01*
X170713400Y-102590600D02*
X178130200Y-102590600D01*
X170307000Y-100838000D02*
X170307000Y-102184200D01*
X170307000Y-102184200D02*
X170713400Y-102590600D01*
%TO.N,Net-(J1-Pin_3)*%
X170865800Y-79857600D02*
X172720000Y-78003400D01*
X164617400Y-79857600D02*
X170865800Y-79857600D01*
X172720000Y-78003400D02*
X172720000Y-75641200D01*
%TD*%
M02*
