%TF.GenerationSoftware,KiCad,Pcbnew,9.0.0*%
%TF.CreationDate,2025-05-02T13:48:10-04:00*%
%TF.ProjectId,cbm2rrcart,63626d32-7272-4636-9172-742e6b696361,rev?*%
%TF.SameCoordinates,Original*%
%TF.FileFunction,Soldermask,Bot*%
%TF.FilePolarity,Negative*%
%FSLAX46Y46*%
G04 Gerber Fmt 4.6, Leading zero omitted, Abs format (unit mm)*
G04 Created by KiCad (PCBNEW 9.0.0) date 2025-05-02 13:48:10*
%MOMM*%
%LPD*%
G01*
G04 APERTURE LIST*
%ADD10R,1.600000X2.400000*%
%ADD11O,1.600000X2.400000*%
%ADD12C,1.600000*%
%ADD13R,1.600000X1.600000*%
%ADD14O,1.600000X1.600000*%
%ADD15R,2.400000X1.600000*%
%ADD16O,2.400000X1.600000*%
%ADD17R,1.700000X1.700000*%
%ADD18O,1.700000X1.700000*%
%ADD19R,39.674800X8.315600*%
%ADD20R,1.524000X8.000000*%
G04 APERTURE END LIST*
D10*
%TO.C,U1*%
X177850800Y-93141800D03*
D11*
X175310800Y-93141800D03*
X172770800Y-93141800D03*
X170230800Y-93141800D03*
X167690800Y-93141800D03*
X165150800Y-93141800D03*
X162610800Y-93141800D03*
X160070800Y-93141800D03*
X160070800Y-100761800D03*
X162610800Y-100761800D03*
X165150800Y-100761800D03*
X167690800Y-100761800D03*
X170230800Y-100761800D03*
X172770800Y-100761800D03*
X175310800Y-100761800D03*
X177850800Y-100761800D03*
%TD*%
D12*
%TO.C,C2*%
X156438600Y-64577600D03*
X156438600Y-67077600D03*
%TD*%
D13*
%TO.C,RN1*%
X177850800Y-88417400D03*
D14*
X175310800Y-88417400D03*
X172770800Y-88417400D03*
X170230800Y-88417400D03*
X167690800Y-88417400D03*
X165150800Y-88417400D03*
X162610800Y-88417400D03*
%TD*%
D13*
%TO.C,RN2*%
X177774600Y-69316600D03*
D14*
X175234600Y-69316600D03*
X172694600Y-69316600D03*
X170154600Y-69316600D03*
X167614600Y-69316600D03*
X165074600Y-69316600D03*
X162534600Y-69316600D03*
%TD*%
D15*
%TO.C,U2*%
X138277600Y-64566800D03*
D16*
X138277600Y-67106800D03*
X138277600Y-69646800D03*
X138277600Y-72186800D03*
X138277600Y-74726800D03*
X138277600Y-77266800D03*
X138277600Y-79806800D03*
X138277600Y-82346800D03*
X138277600Y-84886800D03*
X138277600Y-87426800D03*
X138277600Y-89966800D03*
X138277600Y-92506800D03*
X138277600Y-95046800D03*
X138277600Y-97586800D03*
X138277600Y-100126800D03*
X138277600Y-102666800D03*
X153517600Y-102666800D03*
X153517600Y-100126800D03*
X153517600Y-97586800D03*
X153517600Y-95046800D03*
X153517600Y-92506800D03*
X153517600Y-89966800D03*
X153517600Y-87426800D03*
X153517600Y-84886800D03*
X153517600Y-82346800D03*
X153517600Y-79806800D03*
X153517600Y-77266800D03*
X153517600Y-74726800D03*
X153517600Y-72186800D03*
X153517600Y-69646800D03*
X153517600Y-67106800D03*
X153517600Y-64566800D03*
%TD*%
D17*
%TO.C,J1*%
X159131000Y-87401400D03*
D18*
X159131000Y-84861400D03*
X159131000Y-82321400D03*
%TD*%
D12*
%TO.C,C3*%
X129590800Y-61174000D03*
X127090800Y-61174000D03*
%TD*%
D10*
%TO.C,U4*%
X177800000Y-75641200D03*
D11*
X175260000Y-75641200D03*
X172720000Y-75641200D03*
X170180000Y-75641200D03*
X167640000Y-75641200D03*
X165100000Y-75641200D03*
X162560000Y-75641200D03*
X162560000Y-83261200D03*
X165100000Y-83261200D03*
X167640000Y-83261200D03*
X170180000Y-83261200D03*
X172720000Y-83261200D03*
X175260000Y-83261200D03*
X177800000Y-83261200D03*
%TD*%
D12*
%TO.C,C4*%
X180670200Y-73166600D03*
X180670200Y-75666600D03*
%TD*%
D13*
%TO.C,U3*%
X126949200Y-64566800D03*
D14*
X126949200Y-67106800D03*
X126949200Y-69646800D03*
X126949200Y-72186800D03*
X126949200Y-74726800D03*
X126949200Y-77266800D03*
X126949200Y-79806800D03*
X126949200Y-82346800D03*
X126949200Y-84886800D03*
X126949200Y-87426800D03*
X126949200Y-89966800D03*
X126949200Y-92506800D03*
X126949200Y-95046800D03*
X126949200Y-97586800D03*
X126949200Y-100126800D03*
X126949200Y-102666800D03*
X134569200Y-102666800D03*
X134569200Y-100126800D03*
X134569200Y-97586800D03*
X134569200Y-95046800D03*
X134569200Y-92506800D03*
X134569200Y-89966800D03*
X134569200Y-87426800D03*
X134569200Y-84886800D03*
X134569200Y-82346800D03*
X134569200Y-79806800D03*
X134569200Y-77266800D03*
X134569200Y-74726800D03*
X134569200Y-72186800D03*
X134569200Y-69646800D03*
X134569200Y-67106800D03*
X134569200Y-64566800D03*
%TD*%
D13*
%TO.C,SW1*%
X175234601Y-56870600D03*
D14*
X172694601Y-56870600D03*
X170154601Y-56870600D03*
X167614601Y-56870600D03*
X165074601Y-56870600D03*
X162534601Y-56870600D03*
X162534601Y-64490600D03*
X165074601Y-64490600D03*
X167614601Y-64490600D03*
X170154601Y-64490600D03*
X172694601Y-64490600D03*
X175234601Y-64490600D03*
%TD*%
D17*
%TO.C,J2*%
X179654200Y-105824100D03*
D18*
X179654200Y-108364100D03*
%TD*%
D19*
%TO.C,P1*%
X153695400Y-117340200D03*
D20*
X135890000Y-117348000D03*
X138430000Y-117348000D03*
X140970000Y-117348000D03*
X143510000Y-117348000D03*
X146050000Y-117348000D03*
X148590000Y-117348000D03*
X151130000Y-117348000D03*
X153670000Y-117348000D03*
X156210000Y-117348000D03*
X158750000Y-117348000D03*
X161290000Y-117348000D03*
X163830000Y-117348000D03*
X166370000Y-117348000D03*
X168910000Y-117348000D03*
X171450000Y-117348000D03*
%TD*%
M02*
