M48
; DRILL file {KiCad 9.0.0} date 2025-05-02T13:48:07-0400
; FORMAT={-:-/ absolute / inch / decimal}
; #@! TF.CreationDate,2025-05-02T13:48:07-04:00
; #@! TF.GenerationSoftware,Kicad,Pcbnew,9.0.0
; #@! TF.FileFunction,Plated,1,2,PTH
FMAT,2
INCH
; #@! TA.AperFunction,Plated,PTH,ViaDrill
T1C0.0157
; #@! TA.AperFunction,Plated,PTH,ComponentDrill
T2C0.0315
; #@! TA.AperFunction,Plated,PTH,ComponentDrill
T3C0.0394
%
G90
G05
T1
X5.445Y-4.162
X5.5815Y-2.8165
X5.643Y-3.032
X5.669Y-2.991
X5.7Y-3.742
X5.7021Y-4.254
X5.726Y-3.866
X5.7267Y-4.2788
X5.75Y-4.3
X5.7513Y-3.942
X5.764Y-3.445
X5.7745Y-4.3228
X5.782Y-3.99
X5.795Y-4.3467
X5.806Y-3.942
X5.816Y-3.542
X5.8482Y-3.842
X5.85Y-4.348
X5.866Y-3.74
X5.867Y-3.342
X5.8837Y-3.64
X5.898Y-3.092
X5.9234Y-3.442
X5.944Y-2.88
X5.9454Y-3.242
X5.947Y-2.755
X5.952Y-4.348
X6.05Y-4.344
X6.102Y-4.162
X6.128Y-4.12
X6.143Y-3.004
X6.169Y-3.574
X6.481Y-3.144
X6.695Y-3.077
X6.791Y-4.066
X6.938Y-3.7486
X7.073Y-4.0276
X7.13Y-3.783
X7.13Y-4.062
T2
X4.998Y-2.542
X4.998Y-2.642
X4.998Y-2.742
X4.998Y-2.842
X4.998Y-2.942
X4.998Y-3.042
X4.998Y-3.142
X4.998Y-3.242
X4.998Y-3.342
X4.998Y-3.442
X4.998Y-3.542
X4.998Y-3.642
X4.998Y-3.742
X4.998Y-3.842
X4.998Y-3.942
X4.998Y-4.042
X5.0036Y-2.4084
X5.102Y-2.4084
X5.298Y-2.542
X5.298Y-2.642
X5.298Y-2.742
X5.298Y-2.842
X5.298Y-2.942
X5.298Y-3.042
X5.298Y-3.142
X5.298Y-3.242
X5.298Y-3.342
X5.298Y-3.442
X5.298Y-3.542
X5.298Y-3.642
X5.298Y-3.742
X5.298Y-3.842
X5.298Y-3.942
X5.298Y-4.042
X5.444Y-2.542
X5.444Y-2.642
X5.444Y-2.742
X5.444Y-2.842
X5.444Y-2.942
X5.444Y-3.042
X5.444Y-3.142
X5.444Y-3.242
X5.444Y-3.342
X5.444Y-3.442
X5.444Y-3.542
X5.444Y-3.642
X5.444Y-3.742
X5.444Y-3.842
X5.444Y-3.942
X5.444Y-4.042
X6.044Y-2.542
X6.044Y-2.642
X6.044Y-2.742
X6.044Y-2.842
X6.044Y-2.942
X6.044Y-3.042
X6.044Y-3.142
X6.044Y-3.242
X6.044Y-3.342
X6.044Y-3.442
X6.044Y-3.542
X6.044Y-3.642
X6.044Y-3.742
X6.044Y-3.842
X6.044Y-3.942
X6.044Y-4.042
X6.159Y-2.5424
X6.159Y-2.6409
X6.302Y-3.667
X6.302Y-3.967
X6.399Y-2.729
X6.399Y-2.239
X6.399Y-2.539
X6.4Y-2.978
X6.4Y-3.278
X6.402Y-3.481
X6.402Y-3.667
X6.402Y-3.967
X6.499Y-2.729
X6.499Y-2.239
X6.499Y-2.539
X6.5Y-2.978
X6.5Y-3.278
X6.502Y-3.481
X6.502Y-3.667
X6.502Y-3.967
X6.599Y-2.729
X6.599Y-2.239
X6.599Y-2.539
X6.6Y-2.978
X6.6Y-3.278
X6.602Y-3.481
X6.602Y-3.667
X6.602Y-3.967
X6.699Y-2.729
X6.699Y-2.239
X6.699Y-2.539
X6.7Y-2.978
X6.7Y-3.278
X6.702Y-3.481
X6.702Y-3.667
X6.702Y-3.967
X6.799Y-2.729
X6.799Y-2.239
X6.799Y-2.539
X6.8Y-2.978
X6.8Y-3.278
X6.802Y-3.481
X6.802Y-3.667
X6.802Y-3.967
X6.899Y-2.729
X6.899Y-2.239
X6.899Y-2.539
X6.9Y-2.978
X6.9Y-3.278
X6.902Y-3.481
X6.902Y-3.667
X6.902Y-3.967
X6.999Y-2.729
X7.0Y-2.978
X7.0Y-3.278
X7.002Y-3.481
X7.002Y-3.667
X7.002Y-3.967
X7.113Y-2.8806
X7.113Y-2.979
T3
X6.265Y-3.241
X6.265Y-3.341
X6.265Y-3.441
X7.073Y-4.1663
X7.073Y-4.2663
M30
